<?xml version="1.0" encoding="utf-8"?>
<svg version="1.1" xmlns:xlink="http://www.w3.org/1999/xlink" width="30px" height="23px" xmlns="http://www.w3.org/2000/svg">
  <g transform="matrix(1 0 0 1 -120 -350 )">
    <path d="M 28.3258928571429 8.83735795454546  C 28.9620535714286 8.41264204545455  29.5200892857143 7.93892045454546  30 7.41619318181818  L 30 20.3863636363636  C 30 21.1051136363636  29.7377232142857 21.7204071969697  29.2131696428571 22.2322443181818  C 28.6886160714286 22.7440814393939  28.0580357142857 23  27.3214285714286 23  L 2.67857142857143 23  C 1.94196428571429 23  1.31138392857143 22.7440814393939  0.786830357142857 22.2322443181818  C 0.262276785714286 21.7204071969697  0 21.1051136363636  0 20.3863636363636  L 0 7.41619318181818  C 0.491071428571429 7.9498106060606  1.0546875 8.42353219696969  1.69084821428571 8.83735795454546  C 5.73102678571429 11.5163352272727  8.50446428571428 13.3948863636364  10.0111607142857 14.4730113636364  C 10.6473214285714 14.9303977272727  11.1635044642857 15.2870501893939  11.5597098214286 15.54296875  C 11.9559151785714 15.7988873106061  12.4832589285714 16.0602509469697  13.1417410714286 16.3270596590909  C 13.8002232142857 16.5938683712121  14.4140625 16.7272727272727  14.9832589285714 16.7272727272727  L 15 16.7272727272727  L 15.0167410714286 16.7272727272727  C 15.5859375 16.7272727272727  16.1997767857143 16.5938683712121  16.8582589285714 16.3270596590909  C 17.5167410714286 16.0602509469697  18.0440848214286 15.7988873106061  18.4402901785714 15.54296875  C 18.8364955357143 15.2870501893939  19.3526785714286 14.9303977272727  19.9888392857143 14.4730113636364  C 21.8861607142857 13.1335227272727  24.6651785714286 11.2549715909091  28.3258928571429 8.83735795454546  Z M 29.2047991071429 0.767755681818181  C 29.7349330357143 1.2795928030303  30 1.89488636363636  30 2.61363636363636  C 30 3.47395833333333  29.7265625 4.29616477272727  29.1796875 5.08025568181818  C 28.6328125 5.86434659090909  27.9520089285714 6.53409090909091  27.1372767857143 7.08948863636364  C 22.9408482142857 9.93181818181818  20.3292410714286 11.7014678030303  19.3024553571429 12.3984375  C 19.1908482142857 12.4746685606061  18.9536830357143 12.6407433712121  18.5909598214286 12.8966619318182  C 18.2282366071429 13.1525804924242  17.9268973214286 13.3594933712121  17.6869419642857 13.5174005681818  C 17.4469866071429 13.6753077651515  17.1568080357143 13.8522727272727  16.81640625 14.0482954545455  C 16.4760044642857 14.2443181818182  16.1551339285714 14.3913352272727  15.8537946428571 14.4893465909091  C 15.5524553571429 14.5873579545455  15.2734375 14.6363636363636  15.0167410714286 14.6363636363636  L 15 14.6363636363636  L 14.9832589285714 14.6363636363636  C 14.7265625 14.6363636363636  14.4475446428571 14.5873579545455  14.1462053571429 14.4893465909091  C 13.8448660714286 14.3913352272727  13.5239955357143 14.2443181818182  13.18359375 14.0482954545455  C 12.8431919642857 13.8522727272727  12.5530133928571 13.6753077651515  12.3130580357143 13.5174005681818  C 12.0731026785714 13.3594933712121  11.7717633928571 13.1525804924242  11.4090401785714 12.8966619318182  C 11.0463169642857 12.6407433712121  10.8091517857143 12.4746685606061  10.6975446428571 12.3984375  C 9.68191964285714 11.7014678030303  8.21986607142857 10.7077414772727  6.31138392857143 9.41725852272727  C 4.40290178571429 8.12677556818182  3.25892857142857 7.35085227272727  2.87946428571429 7.08948863636364  C 2.1875 6.63210227272727  1.53459821428571 6.00319602272727  0.920758928571429 5.20276988636364  C 0.306919642857143 4.40234375  0 3.65909090909091  0 2.97301136363636  C 0 2.12357954545454  0.231584821428572 1.41571969696969  0.694754464285714 0.849431818181819  C 1.15792410714286 0.283143939393937  1.81919642857143 0  2.67857142857143 0  L 27.3214285714286 0  C 28.046875 0  28.6746651785714 0.255918560606058  29.2047991071429 0.767755681818181  Z " fill-rule="nonzero" fill="#000000" stroke="none" transform="matrix(1 0 0 1 120 350 )" />
  </g>
</svg>