<?xml version="1.0" encoding="utf-8"?>
<svg version="1.1" xmlns:xlink="http://www.w3.org/1999/xlink" width="23px" height="23px" xmlns="http://www.w3.org/2000/svg">
  <g transform="matrix(1 0 0 1 -269 -21 )">
    <path d="M 3.88646864686469 21.0567656765677  L 5.51089108910891 21.0567656765677  L 6.89240924092409 19.6752475247525  L 3.32475247524752 16.1075907590759  L 1.94323432343234 17.4891089108911  L 1.94323432343234 19.1135313531353  L 3.88646864686469 19.1135313531353  L 3.88646864686469 21.0567656765677  Z M 13.3445544554455 7.22640264026403  C 13.415401540154 7.15555555555556  13.4508250825083 7.06952695269527  13.4508250825083 6.96831683168317  C 13.4508250825083 6.74565456545655  13.3394939493949 6.63432343234323  13.1168316831683 6.63432343234323  C 13.0156215621562 6.63432343234323  12.9295929592959 6.66974697469747  12.8587458745875 6.74059405940594  L 4.63036303630363 14.9689768976898  C 4.55951595159516 15.0398239823982  4.52409240924092 15.1258525852585  4.52409240924092 15.2270627062706  C 4.52409240924092 15.4497249724972  4.63542354235424 15.5610561056106  4.85808580858086 15.5610561056106  C 4.95929592959296 15.5610561056106  5.04532453245325 15.5256325632563  5.11617161716172 15.4547854785479  L 13.3445544554455 7.22640264026403  Z M 0 16.6844884488449  L 12.6310231023102 4.05346534653465  L 18.9465346534653 10.3689768976898  L 6.31551155115512 23  L 0 23  L 0 16.6844884488449  Z M 22.4382838283828 4.12937293729373  C 22.8127612761276 4.52409240924093  23 4.98459845984598  23 5.51089108910891  C 23 6.04730473047305  22.8127612761276 6.5027502750275  22.4382838283828 6.87722772277228  L 19.9181518151815 9.3973597359736  L 13.6026402640264 3.08184818481848  L 16.1227722772277 0.576897689768976  C 16.4871287128713 0.19229922992299  16.9425742574257 0  17.4891089108911 0  C 18.0255225522552 0  18.4860286028603 0.19229922992299  18.8706270627063 0.576897689768976  L 22.4382838283828 4.12937293729373  Z " fill-rule="nonzero" fill="#000000" stroke="none" transform="matrix(1 0 0 1 269 21 )" />
  </g>
</svg>