<?xml version="1.0" encoding="utf-8"?>
<svg version="1.1" xmlns:xlink="http://www.w3.org/1999/xlink" width="30px" height="23px" xmlns="http://www.w3.org/2000/svg">
  <g transform="matrix(1 0 0 1 -287 -477 )">
    <path d="M 2.14285714285714 11.5  C 4.00669642857143 14.4434523809524  6.38950892857143 16.5825892857143  9.29129464285714 17.9174107142857  L 10.5970982142857 15.5044642857143  C 9.62611607142857 14.7857142857143  8.8671875 13.8787202380952  8.3203125 12.7834821428571  C 7.7734375 11.688244047619  7.5 10.5302579365079  7.5 9.30952380952381  C 7.5 7.92906746031746  7.84040178571429 6.64558531746032  8.52120535714286 5.45907738095238  C 5.96540178571429 6.79389880952381  3.83928571428571 8.80753968253968  2.14285714285714 11.5  Z M 15.5691964285714 5.51041666666667  C 15.7254464285714 5.35069444444444  15.8035714285714 5.15674603174603  15.8035714285714 4.92857142857143  C 15.8035714285714 4.70039682539682  15.7254464285714 4.50644841269841  15.5691964285714 4.34672619047619  C 15.4129464285714 4.18700396825397  15.2232142857143 4.10714285714286  15 4.10714285714286  C 13.6049107142857 4.10714285714286  12.4079241071429 4.61768353174603  11.4090401785714 5.63876488095238  C 10.41015625 6.65984623015873  9.91071428571428 7.88343253968254  9.91071428571428 9.30952380952381  C 9.91071428571428 9.53769841269841  9.98883928571429 9.73164682539682  10.1450892857143 9.89136904761905  C 10.3013392857143 10.0510912698413  10.4910714285714 10.1309523809524  10.7142857142857 10.1309523809524  C 10.9375 10.1309523809524  11.1272321428571 10.0510912698413  11.2834821428571 9.89136904761905  C 11.4397321428571 9.73164682539682  11.5178571428571 9.53769841269841  11.5178571428571 9.30952380952381  C 11.5178571428571 8.32837301587301  11.8582589285714 7.48983134920635  12.5390625 6.79389880952381  C 13.2198660714286 6.09796626984127  14.0401785714286 5.75  15 5.75  C 15.2232142857143 5.75  15.4129464285714 5.67013888888889  15.5691964285714 5.51041666666667  Z M 21.6127232142857 1.19791666666667  C 21.7912946428571 1.31200396825397  21.8805803571429 1.46602182539682  21.8805803571429 1.65997023809524  C 21.8805803571429 1.73983134920635  21.875 1.79117063492063  21.8638392857143 1.8139880952381  C 20.6808035714286 3.9702380952381  18.9174107142857 7.2046130952381  16.5736607142857 11.5171130952381  C 14.2299107142857 15.8296130952381  12.4720982142857 19.0582837301587  11.3002232142857 21.203125  L 10.4799107142857 22.7261904761905  C 10.3683035714286 22.9087301587302  10.2120535714286 23  10.0111607142857 23  C 9.87723214285714 23  9.12946428571429 22.6006944444444  7.76785714285714 21.8020833333333  C 7.58928571428572 21.687996031746  7.5 21.5282738095238  7.5 21.3229166666667  C 7.5 21.1860119047619  7.74553571428572 20.6897321428571  8.23660714285714 19.8340773809524  C 6.640625 19.0925099206349  5.17020089285714 18.1056547619048  3.82533482142857 16.8735119047619  C 2.48046875 15.641369047619  1.31696428571429 14.2437996031746  0.334821428571429 12.6808035714286  C 0.111607142857143 12.3271329365079  0 11.9335317460317  0 11.5  C 0 11.0664682539683  0.111607142857143 10.6728670634921  0.334821428571429 10.3191964285714  C 2.04241071428571 7.63814484126984  4.16294642857143 5.5218253968254  6.69642857142857 3.9702380952381  C 9.22991071428572 2.41865079365079  11.9977678571429 1.64285714285714  15 1.64285714285714  C 15.9933035714286 1.64285714285714  16.9977678571429 1.73983134920635  18.0133928571429 1.93377976190476  L 18.9174107142857 0.273809523809523  C 19.0290178571429 0.0912698412698409  19.1852678571429 0  19.3861607142857 0  C 19.4419642857143 0  19.5424107142857 0.0342261904761904  19.6875 0.102678571428571  C 19.8325892857143 0.171130952380952  20.0055803571429 0.259548611111108  20.2064732142857 0.367931547619048  C 20.4073660714286 0.476314484126983  20.5915178571429 0.581845238095239  20.7589285714286 0.68452380952381  C 20.9263392857143 0.787202380952381  21.1021205357143 0.892733134920631  21.2862723214286 1.00111607142857  C 21.4704241071429 1.10949900793651  21.5792410714286 1.1750992063492  21.6127232142857 1.19791666666667  Z M 22.3660714285714 7.87202380952381  C 22.4553571428571 8.38541666666667  22.5 8.86458333333333  22.5 9.30952380952381  C 22.5 10.8953373015873  22.0591517857143 12.3413938492063  21.1774553571429 13.647693452381  C 20.2957589285714 14.9539930555556  19.1294642857143 15.8923611111111  17.6785714285714 16.4627976190476  L 22.3660714285714 7.87202380952381  Z M 29.6651785714286 10.3191964285714  C 29.8883928571429 10.7070932539683  30 11.1006944444444  30 11.5  C 30 11.8993055555556  29.8883928571429 12.2929067460317  29.6651785714286 12.6808035714286  C 29.2299107142857 13.4109623015873  28.6216517857143 14.2380952380952  27.8404017857143 15.1622023809524  C 26.1662946428571 17.124503968254  24.2271205357143 18.6475694444444  22.0228794642857 19.7313988095238  C 19.8186383928571 20.8152281746032  17.4776785714286 21.3571428571429  15 21.3571428571429  L 16.2388392857143 19.0982142857143  C 18.6049107142857 18.8928571428571  20.7952008928571 18.1113591269841  22.8097098214286 16.7537202380952  C 24.82421875 15.3960813492063  26.5066964285714 13.6448412698413  27.8571428571429 11.5  C 26.5736607142857 9.4578373015873  25 7.78075396825397  23.1361607142857 6.46875  L 24.1908482142857 4.55208333333333  C 25.2511160714286 5.28224206349206  26.26953125 6.15500992063492  27.24609375 7.1703869047619  C 28.22265625 8.18576388888889  29.0290178571429 9.23536706349206  29.6651785714286 10.3191964285714  Z " fill-rule="nonzero" fill="#000000" stroke="none" transform="matrix(1 0 0 1 287 477 )" />
  </g>
</svg>