<?xml version="1.0" encoding="utf-8"?>
<svg version="1.1" xmlns:xlink="http://www.w3.org/1999/xlink" width="30px" height="19px" xmlns="http://www.w3.org/2000/svg">
  <g transform="matrix(1 0 0 1 -287 -479 )">
    <path d="M 22.2739955357143 14.8849826388889  C 24.51171875 13.5490451388889  26.3727678571429 11.7540509259259  27.8571428571429 9.5  C 26.1607142857143 6.90509259259259  24.0345982142857 4.96440972222222  21.4787946428571 3.67795138888889  C 22.1595982142857 4.8214699074074  22.5 6.05844907407407  22.5 7.38888888888889  C 22.5 9.4230324074074  21.7661830357143 11.1630497685185  20.2985491071429 12.6089409722222  C 18.8309151785714 14.0548321759259  17.0647321428571 14.7777777777778  15 14.7777777777778  C 12.9352678571429 14.7777777777778  11.1690848214286 14.0548321759259  9.70145089285714 12.6089409722222  C 8.23381696428572 11.1630497685185  7.5 9.4230324074074  7.5 7.38888888888889  C 7.5 6.05844907407407  7.84040178571429 4.8214699074074  8.52120535714286 3.67795138888889  C 5.96540178571429 4.96440972222222  3.83928571428571 6.90509259259259  2.14285714285714 9.5  C 3.62723214285714 11.7540509259259  5.48828125 13.5490451388889  7.72600446428571 14.8849826388889  C 9.96372767857143 16.2209201388889  12.3883928571429 16.8888888888889  15 16.8888888888889  C 17.6116071428571 16.8888888888889  20.0362723214286 16.2209201388889  22.2739955357143 14.8849826388889  Z M 15.5691964285714 3.72743055555556  C 15.7254464285714 3.57349537037037  15.8035714285714 3.38657407407407  15.8035714285714 3.16666666666667  C 15.8035714285714 2.94675925925926  15.7254464285714 2.75983796296296  15.5691964285714 2.60590277777778  C 15.4129464285714 2.45196759259259  15.2232142857143 2.375  15 2.375  C 13.6049107142857 2.375  12.4079241071429 2.86704282407407  11.4090401785714 3.85112847222222  C 10.41015625 4.83521412037037  9.91071428571428 6.01446759259259  9.91071428571428 7.38888888888889  C 9.91071428571428 7.60879629629629  9.98883928571429 7.79571759259259  10.1450892857143 7.94965277777778  C 10.3013392857143 8.10358796296296  10.4910714285714 8.18055555555556  10.7142857142857 8.18055555555556  C 10.9375 8.18055555555556  11.1272321428571 8.10358796296296  11.2834821428571 7.94965277777778  C 11.4397321428571 7.79571759259259  11.5178571428571 7.60879629629629  11.5178571428571 7.38888888888889  C 11.5178571428571 6.44328703703704  11.8582589285714 5.63512731481481  12.5390625 4.96440972222222  C 13.2198660714286 4.29369212962963  14.0401785714286 3.95833333333333  15 3.95833333333333  C 15.2232142857143 3.95833333333333  15.4129464285714 3.88136574074074  15.5691964285714 3.72743055555556  Z M 29.6651785714286 8.36197916666667  C 29.8883928571429 8.74681712962963  30 9.1261574074074  30 9.5  C 30 9.87384259259259  29.8883928571429 10.2531828703704  29.6651785714286 10.6380208333333  C 28.1026785714286 13.1669560185185  26.0016741071429 15.1928530092593  23.3621651785714 16.7157118055556  C 20.72265625 18.2385706018519  17.9352678571429 19  15 19  C 12.0647321428571 19  9.27734375 18.2358217592593  6.63783482142857 16.7074652777778  C 3.99832589285714 15.1791087962963  1.89732142857143 13.1559606481481  0.334821428571429 10.6380208333333  C 0.111607142857143 10.2531828703704  0 9.87384259259259  0 9.5  C 0 9.1261574074074  0.111607142857143 8.74681712962963  0.334821428571429 8.36197916666667  C 1.89732142857143 5.84403935185185  3.99832589285714 3.8208912037037  6.63783482142857 2.29253472222222  C 9.27734375 0.764178240740739  12.0647321428571 0  15 0  C 17.9352678571429 0  20.72265625 0.764178240740739  23.3621651785714 2.29253472222222  C 26.0016741071429 3.8208912037037  28.1026785714286 5.84403935185185  29.6651785714286 8.36197916666667  Z " fill-rule="nonzero" fill="#000000" stroke="none" transform="matrix(1 0 0 1 287 479 )" />
  </g>
</svg>