<?xml version="1.0" encoding="utf-8"?>
<svg version="1.1" xmlns:xlink="http://www.w3.org/1999/xlink" width="31px" height="18px" xmlns="http://www.w3.org/2000/svg">
  <g transform="matrix(1 0 0 1 -40 -83 )">
    <path d="M 30.689378757515 1.85567010309278  C 30.8964595858383 2.06185567010309  31 2.29896907216495  31 2.56701030927835  C 31 2.83505154639175  30.8964595858383 3.07216494845361  30.689378757515 3.27835051546392  L 16.2144288577154 17.6907216494845  C 16.0073480293921 17.8969072164948  15.7692050768203 18  15.5 18  C 15.2307949231797 18  14.9926519706079 17.8969072164948  14.7855711422846 17.6907216494845  L 0.31062124248497 3.27835051546392  C 0.103540414161657 3.07216494845361  0 2.83505154639175  0 2.56701030927835  C 0 2.29896907216495  0.103540414161657 2.06185567010309  0.31062124248497 1.85567010309278  L 1.86372745490982 0.309278350515465  C 2.07080828323313 0.103092783505152  2.30895123580494 0  2.57815631262525 0  C 2.84736138944556 0  3.08550434201737 0.103092783505152  3.29258517034068 0.309278350515465  L 15.5 12.4639175257732  L 27.7074148296593 0.309278350515465  C 27.9144956579826 0.103092783505152  28.1526386105544 0  28.4218436873748 0  C 28.6910487641951 0  28.9291917167669 0.103092783505152  29.1362725450902 0.309278350515465  L 30.689378757515 1.85567010309278  Z " fill-rule="nonzero" fill="#000000" stroke="none" transform="matrix(1 0 0 1 40 83 )" />
  </g>
</svg>