<?xml version="1.0" encoding="utf-8"?>
<svg version="1.1" xmlns:xlink="http://www.w3.org/1999/xlink" width="64px" height="56px" xmlns="http://www.w3.org/2000/svg">
  <g transform="matrix(1 0 0 1 -50 -190 )">
    <path d="M 25.2166666666667 25.4591346153846  C 27.0944444444444 23.5633012820513  29.3555555555556 22.6153846153846  32 22.6153846153846  C 34.6444444444445 22.6153846153846  36.9055555555556 23.5633012820513  38.7833333333333 25.4591346153846  C 40.6611111111111 27.3549679487179  41.6 29.6378205128205  41.6 32.3076923076923  C 41.6 34.9775641025641  40.6611111111111 37.2604166666667  38.7833333333333 39.15625  C 36.9055555555556 41.0520833333333  34.6444444444445 42  32 42  C 29.3555555555556 42  27.0944444444444 41.0520833333333  25.2166666666667 39.15625  C 23.3388888888889 37.2604166666667  22.4 34.9775641025641  22.4 32.3076923076923  C 22.4 29.6378205128205  23.3388888888889 27.3549679487179  25.2166666666667 25.4591346153846  Z M 48 8.61538461538462  L 55.4666666666667 8.61538461538462  C 57.8222222222222 8.61538461538462  59.8333333333333 9.45673076923077  61.5 11.1394230769231  C 63.1666666666667 12.8221153846154  64 14.8525641025641  64 17.2307692307692  L 64 47.3846153846154  C 64 49.7628205128205  63.1666666666667 51.7932692307692  61.5 53.4759615384615  C 59.8333333333333 55.1586538461538  57.8222222222222 56  55.4666666666667 56  L 8.53333333333333 56  C 6.17777777777778 56  4.16666666666667 55.1586538461538  2.5 53.4759615384615  C 0.833333333333333 51.7932692307692  0 49.7628205128205  0 47.3846153846154  L 0 17.2307692307692  C 0 14.8525641025641  0.833333333333333 12.8221153846154  2.5 11.1394230769231  C 4.16666666666667 9.45673076923077  6.17777777777778 8.61538461538462  8.53333333333333 8.61538461538462  L 16 8.61538461538462  L 17.7 4.03846153846154  C 18.1222222222222 2.93910256410256  18.8944444444444 1.99118589743589  20.0166666666667 1.19471153846154  C 21.1388888888889 0.398237179487185  22.2888888888889 0  23.4666666666667 0  L 40.5333333333333 0  C 41.7111111111111 0  42.8611111111111 0.398237179487185  43.9833333333333 1.19471153846154  C 45.1055555555556 1.99118589743589  45.8777777777778 2.93910256410256  46.3 4.03846153846154  L 48 8.61538461538462  Z M 21.45 42.9591346153846  C 24.3722222222222 45.9094551282051  27.8888888888889 47.3846153846154  32 47.3846153846154  C 36.1111111111111 47.3846153846154  39.6277777777778 45.9094551282051  42.55 42.9591346153846  C 45.4722222222222 40.0088141025641  46.9333333333333 36.4583333333333  46.9333333333333 32.3076923076923  C 46.9333333333333 28.1570512820513  45.4722222222222 24.6065705128205  42.55 21.65625  C 39.6277777777778 18.7059294871795  36.1111111111111 17.2307692307692  32 17.2307692307692  C 27.8888888888889 17.2307692307692  24.3722222222222 18.7059294871795  21.45 21.65625  C 18.5277777777778 24.6065705128205  17.0666666666667 28.1570512820513  17.0666666666667 32.3076923076923  C 17.0666666666667 36.4583333333333  18.5277777777778 40.0088141025641  21.45 42.9591346153846  Z " fill-rule="nonzero" fill="#000000" stroke="none" transform="matrix(1 0 0 1 50 190 )" />
  </g>
</svg>