<?xml version="1.0" encoding="utf-8"?>
<svg version="1.1" xmlns:xlink="http://www.w3.org/1999/xlink" width="48px" height="52px" xmlns="http://www.w3.org/2000/svg">
  <g transform="matrix(1 0 0 1 -258 -191 )">
    <path d="M 44.5714285714286 34.6439790575916  C 46.8571428571429 36.8673647469459  48 39.5331588132635  48 42.6413612565445  C 48 45.2958115183246  47.0971428571429 47.5191972076789  45.2914285714286 49.3115183246073  C 43.4857142857143 51.1038394415358  41.2457142857143 52  38.5714285714286 52  C 35.4857142857143 52  32.8 50.8656195462478  30.5142857142857 48.5968586387435  L 3.87428571428571 22.1884816753927  C 1.29142857142857 19.5794066317626  0 16.5052356020942  0 12.9659685863874  C 0 9.3586387434555  1.25714285714286 6.29581151832461  3.77142857142857 3.77748691099476  C 6.28571428571429 1.25916230366492  9.36 0  12.9942857142857 0  C 16.6057142857143 0  19.7257142857143 1.28184991273996  22.3542857142857 3.84554973821989  L 43.0971428571429 24.4685863874346  C 43.3257142857143 24.695462478185  43.44 24.9450261780105  43.44 25.217277486911  C 43.44 25.5802792321117  43.0914285714286 26.1077661431065  42.3942857142857 26.7997382198953  C 41.6971428571429 27.4917102966841  41.1657142857143 27.8376963350785  40.8 27.8376963350785  C 40.5028571428571 27.8376963350785  40.24 27.7242582897033  40.0114285714286 27.4973821989529  L 19.2342857142857 6.84031413612565  C 17.4285714285714 5.09336823734729  15.36 4.21989528795812  13.0285714285714 4.21989528795812  C 10.6057142857143 4.21989528795812  8.56 5.07068062827225  6.89142857142857 6.77225130890052  C 5.22285714285714 8.4738219895288  4.38857142857143 10.5270506108202  4.38857142857143 12.9319371727749  C 4.38857142857143 15.3141361256545  5.25714285714286 17.3673647469459  6.99428571428571 19.0916230366492  L 33.6 45.5340314136126  C 35.04 46.9633507853403  36.6971428571429 47.6780104712042  38.5714285714286 47.6780104712042  C 40.0342857142857 47.6780104712042  41.2457142857143 47.2015706806283  42.2057142857143 46.2486910994764  C 43.1657142857143 45.2958115183246  43.6457142857143 44.0933682373473  43.6457142857143 42.6413612565445  C 43.6457142857143 40.7809773123909  42.9257142857143 39.1361256544503  41.4857142857143 37.7068062827225  L 21.5657142857143 17.934554973822  C 20.9714285714286 17.3900523560209  20.2857142857143 17.1178010471204  19.5085714285714 17.1178010471204  C 18.8457142857143 17.1178010471204  18.2971428571429 17.3333333333333  17.8628571428571 17.7643979057592  C 17.4285714285714 18.195462478185  17.2114285714286 18.739965095986  17.2114285714286 19.3979057591623  C 17.2114285714286 20.1239092495637  17.4971428571429 20.7931937172775  18.0685714285714 21.4057591623037  L 32.1257142857143 35.3586387434555  C 32.3542857142857 35.5855148342059  32.4685714285714 35.8350785340314  32.4685714285714 36.1073298429319  C 32.4685714285714 36.4703315881326  32.1142857142857 37.0034904013962  31.4057142857143 37.7068062827225  C 30.6971428571429 38.4101221640489  30.16 38.761780104712  29.7942857142857 38.761780104712  C 29.52 38.761780104712  29.2685714285714 38.6483420593368  29.04 38.4214659685864  L 14.9828571428571 24.4685863874346  C 13.5428571428571 23.0846422338569  12.8228571428571 21.3944153577661  12.8228571428571 19.3979057591623  C 12.8228571428571 17.5375218150087  13.4742857142857 15.9607329842932  14.7771428571429 14.6675392670157  C 16.08 13.3743455497382  17.6685714285714 12.7277486910995  19.5428571428571 12.7277486910995  C 21.5542857142857 12.7277486910995  23.2571428571429 13.4424083769633  24.6514285714286 14.8717277486911  L 44.5714285714286 34.6439790575916  Z " fill-rule="nonzero" fill="#000000" stroke="none" transform="matrix(1 0 0 1 258 191 )" />
  </g>
</svg>