<?xml version="1.0" encoding="utf-8"?>
<svg version="1.1" xmlns:xlink="http://www.w3.org/1999/xlink" width="66px" height="53px" xmlns="http://www.w3.org/2000/svg">
  <g transform="matrix(1 0 0 1 -150 -192 )">
    <path d="M 20.075 10.765625  C 21.3583333333333 12.0538194444444  22 13.6180555555555  22 15.4583333333333  C 22 17.2986111111111  21.3583333333333 18.8628472222222  20.075 20.1510416666667  C 18.7916666666667 21.4392361111111  17.2333333333333 22.0833333333333  15.4 22.0833333333333  C 13.5666666666667 22.0833333333333  12.0083333333333 21.4392361111111  10.725 20.1510416666667  C 9.44166666666667 18.8628472222222  8.8 17.2986111111111  8.8 15.4583333333333  C 8.8 13.6180555555555  9.44166666666667 12.0538194444444  10.725 10.765625  C 12.0083333333333 9.47743055555555  13.5666666666667 8.83333333333333  15.4 8.83333333333333  C 17.2333333333333 8.83333333333333  18.7916666666667 9.47743055555555  20.075 10.765625  Z M 42.9 14.3541666666667  L 57 28.7083333333333  L 57 44  L 8.8 44  L 8.8 37.5416666666667  L 19.8 26.5  L 25.3 32.0208333333333  L 42.9 14.3541666666667  Z M 61.2734375 4.74446614583333  C 61.0557291666667 4.52593315972222  60.7979166666667 4.41666666666667  60.5 5  L 5.5 5  C 5.20208333333333 4.41666666666667  4.94427083333333 4.52593315972222  4.7265625 4.74446614583333  C 4.50885416666667 4.96299913194444  4.4 5.22178819444444  5 5.52083333333333  L 5 47.4791666666667  C 4.4 47.7782118055556  4.50885416666667 48.0370008680556  4.7265625 48.2555338541667  C 4.94427083333333 48.4740668402778  5.20208333333333 48.5833333333333  5.5 48  L 60.5 48  C 60.7979166666667 48.5833333333333  61.0557291666667 48.4740668402778  61.2734375 48.2555338541667  C 61.4911458333333 48.0370008680556  61.6 47.7782118055556  61 47.4791666666667  L 61 5.52083333333333  C 61.6 5.22178819444444  61.4911458333333 4.96299913194444  61.2734375 4.74446614583333  Z M 64.384375 1.62174479166667  C 65.4614583333333 2.70290798611111  66 4.00260416666667  66 5.52083333333333  L 66 47.4791666666667  C 66 48.9973958333333  65.4614583333333 50.2970920138889  64.384375 51.3782552083333  C 63.3072916666667 52.4594184027778  62.0125 53  60.5 53  L 5.5 53  C 3.9875 53  2.69270833333333 52.4594184027778  1.615625 51.3782552083333  C 0.538541666666667 50.2970920138889  0 48.9973958333333  0 47.4791666666667  L 0 5.52083333333333  C 0 4.00260416666667  0.538541666666667 2.70290798611111  1.615625 1.62174479166667  C 2.69270833333333 0.540581597222217  3.9875 0  5.5 0  L 60.5 0  C 62.0125 0  63.3072916666667 0.540581597222217  64.384375 1.62174479166667  Z " fill-rule="nonzero" fill="#000000" stroke="none" transform="matrix(1 0 0 1 150 192 )" />
  </g>
</svg>