<?xml version="1.0" encoding="utf-8"?>
<svg version="1.1" xmlns:xlink="http://www.w3.org/1999/xlink" width="52px" height="39px" xmlns="http://www.w3.org/2000/svg">
  <g transform="matrix(1 0 0 1 -280 -673 )">
    <path d="M 51.0606451612903 5.38383838383839  C 51.6868817204301 5.996632996633  52 6.74074074074074  52 7.61616161616162  C 52 8.49158249158249  51.6868817204301 9.23569023569023  51.0606451612903 9.84848484848485  L 26.7716129032258 33.6161616161616  L 22.2090322580645 38.0808080808081  C 21.5827956989247 38.6936026936027  20.8223655913979 39  19.9277419354839 39  C 19.0331182795699 39  18.272688172043 38.6936026936027  17.6464516129032 38.0808080808081  L 13.0838709677419 33.6161616161616  L 0.939354838709678 21.7323232323232  C 0.313118279569893 21.1195286195286  0 20.3754208754209  0 19.5  C 0 18.6245791245791  0.313118279569893 17.8804713804714  0.939354838709678 17.2676767676768  L 5.50193548387097 12.8030303030303  C 6.12817204301075 12.1902356902357  6.88860215053764 11.8838383838384  7.78322580645161 11.8838383838384  C 8.67784946236559 11.8838383838384  9.43827956989247 12.1902356902357  10.0645161290323 12.8030303030303  L 19.9277419354839 22.4873737373737  L 41.9354838709677 0.919191919191919  C 42.5617204301075 0.306397306397305  43.3221505376344 0  44.2167741935484 0  C 45.1113978494624 0  45.8718279569893 0.306397306397305  46.498064516129 0.919191919191919  L 51.0606451612903 5.38383838383839  Z " fill-rule="nonzero" fill="#000000" stroke="none" transform="matrix(1 0 0 1 280 673 )" />
  </g>
</svg>