<?xml version="1.0" encoding="utf-8"?>
<svg version="1.1" xmlns:xlink="http://www.w3.org/1999/xlink" width="23px" height="22px" xmlns="http://www.w3.org/2000/svg">
  <g transform="matrix(1 0 0 1 -119 -878 )">
    <path d="M 22.7695390781563 19.5859213250518  C 22.9231796927188 19.7377501725328  23 19.912353347136  23 20.1097308488613  C 23 20.3071083505866  22.9231796927188 20.4817115251898  22.7695390781563 20.6335403726708  L 21.6172344689379 21.7722567287785  C 21.4635938543754 21.9240855762595  21.2869071476286 22  21.0871743486974 22  C 20.8874415497662 22  20.7107548430194 21.9240855762595  20.5571142284569 21.7722567287785  L 11.5 12.8219461697723  L 2.44288577154309 21.7722567287785  C 2.28924515698063 21.9240855762595  2.1125584502338 22  1.91282565130261 22  C 1.71309285237141 22  1.53640614562458 21.9240855762595  1.38276553106212 21.7722567287785  L 0.230460921843687 20.6335403726708  C 0.0768203072812294 20.4817115251898  0 20.3071083505866  0 20.1097308488613  C 0 19.912353347136  0.0768203072812294 19.7377501725328  0.230460921843687 19.5859213250518  L 10.9699398797595 8.97308488612836  C 11.123580494322 8.82125603864734  11.3002672010688 8.74534161490683  11.5 8.74534161490683  C 11.6997327989312 8.74534161490683  11.876419505678 8.82125603864734  12.0300601202405 8.97308488612836  L 22.7695390781563 19.5859213250518  Z M 22.7695390781563 10.8405797101449  C 22.9231796927188 10.9924085576259  23 11.1670117322291  23 11.3643892339545  C 23 11.5617667356798  22.9231796927188 11.736369910283  22.7695390781563 11.888198757764  L 21.6172344689379 13.0269151138716  C 21.4635938543754 13.1787439613527  21.2869071476286 13.2546583850932  21.0871743486974 13.2546583850932  C 20.8874415497662 13.2546583850932  20.7107548430194 13.1787439613527  20.5571142284569 13.0269151138716  L 11.5 4.07660455486542  L 2.44288577154309 13.0269151138716  C 2.28924515698063 13.1787439613527  2.1125584502338 13.2546583850932  1.91282565130261 13.2546583850932  C 1.71309285237141 13.2546583850932  1.53640614562458 13.1787439613527  1.38276553106212 13.0269151138716  L 0.230460921843687 11.888198757764  C 0.0768203072812294 11.736369910283  0 11.5617667356798  0 11.3643892339545  C 0 11.1670117322291  0.0768203072812294 10.9924085576259  0.230460921843687 10.8405797101449  L 10.9699398797595 0.227743271221532  C 11.123580494322 0.0759144237405089  11.3002672010688 0  11.5 0  C 11.6997327989312 0  11.876419505678 0.0759144237405089  12.0300601202405 0.227743271221532  L 22.7695390781563 10.8405797101449  Z " fill-rule="nonzero" fill="#000000" stroke="none" transform="matrix(1 0 0 1 119 878 )" />
  </g>
</svg>