<?xml version="1.0" encoding="utf-8"?>
<svg version="1.1" xmlns:xlink="http://www.w3.org/1999/xlink" width="32px" height="28px" xmlns="http://www.w3.org/2000/svg">
  <g transform="matrix(1 0 0 1 -24 -16 )">
    <path d="M 12.6083333333333 12.7295673076923  C 13.5472222222222 11.7816506410256  14.6777777777778 11.3076923076923  16 11.3076923076923  C 17.3222222222222 11.3076923076923  18.4527777777778 11.7816506410256  19.3916666666667 12.7295673076923  C 20.3305555555556 13.677483974359  20.8 14.8189102564103  20.8 16.1538461538462  C 20.8 17.4887820512821  20.3305555555556 18.6302083333333  19.3916666666667 19.578125  C 18.4527777777778 20.5260416666667  17.3222222222222 21  16 21  C 14.6777777777778 21  13.5472222222222 20.5260416666667  12.6083333333333 19.578125  C 11.6694444444444 18.6302083333333  11.2 17.4887820512821  11.2 16.1538461538462  C 11.2 14.8189102564103  11.6694444444444 13.677483974359  12.6083333333333 12.7295673076923  Z M 24 4.30769230769231  L 27.7333333333333 4.30769230769231  C 28.9111111111111 4.30769230769231  29.9166666666667 4.72836538461538  30.75 5.56971153846154  C 31.5833333333333 6.41105769230769  32 7.42628205128205  32 8.61538461538462  L 32 23.6923076923077  C 32 24.8814102564103  31.5833333333333 25.8966346153846  30.75 26.7379807692308  C 29.9166666666667 27.5793269230769  28.9111111111111 28  27.7333333333333 28  L 4.26666666666667 28  C 3.08888888888889 28  2.08333333333333 27.5793269230769  1.25 26.7379807692308  C 0.416666666666667 25.8966346153846  0 24.8814102564103  0 23.6923076923077  L 0 8.61538461538462  C 0 7.42628205128205  0.416666666666667 6.41105769230769  1.25 5.56971153846154  C 2.08333333333333 4.72836538461538  3.08888888888889 4.30769230769231  4.26666666666667 4.30769230769231  L 8 4.30769230769231  L 8.85 2.01923076923077  C 9.06111111111111 1.46955128205128  9.44722222222222 0.995592948717947  10.0083333333333 0.597355769230768  C 10.5694444444444 0.199118589743593  11.1444444444444 0  11.7333333333333 0  L 20.2666666666667 0  C 20.8555555555556 0  21.4305555555556 0.199118589743593  21.9916666666667 0.597355769230768  C 22.5527777777778 0.995592948717947  22.9388888888889 1.46955128205128  23.15 2.01923076923077  L 24 4.30769230769231  Z M 10.725 21.4795673076923  C 12.1861111111111 22.9547275641026  13.9444444444444 23.6923076923077  16 23.6923076923077  C 18.0555555555556 23.6923076923077  19.8138888888889 22.9547275641026  21.275 21.4795673076923  C 22.7361111111111 20.0044070512821  23.4666666666667 18.2291666666667  23.4666666666667 16.1538461538462  C 23.4666666666667 14.0785256410256  22.7361111111111 12.3032852564103  21.275 10.828125  C 19.8138888888889 9.35296474358974  18.0555555555556 8.61538461538462  16 8.61538461538462  C 13.9444444444444 8.61538461538462  12.1861111111111 9.35296474358974  10.725 10.828125  C 9.26388888888889 12.3032852564103  8.53333333333333 14.0785256410256  8.53333333333333 16.1538461538462  C 8.53333333333333 18.2291666666667  9.26388888888889 20.0044070512821  10.725 21.4795673076923  Z " fill-rule="nonzero" fill="#000000" stroke="none" transform="matrix(1 0 0 1 24 16 )" />
  </g>
</svg>