<?xml version="1.0" encoding="utf-8"?>
<svg version="1.1" xmlns:xlink="http://www.w3.org/1999/xlink" width="25px" height="27px" xmlns="http://www.w3.org/2000/svg">
  <g transform="matrix(1 0 0 1 -85 -17 )">
    <path d="M 23.2142857142857 17.988219895288  C 24.4047619047619 19.1426701570681  25 20.526832460733  25 22.1407068062827  C 25 23.5189790575916  24.5297619047619 24.6734293193717  23.5892857142857 25.604057591623  C 22.6488095238095 26.5346858638743  21.4821428571429 27  20.0892857142857 27  C 18.4821428571429 27  17.0833333333333 26.4109947643979  15.8928571428571 25.2329842931937  L 2.01785714285714 11.520942408377  C 0.672619047619048 10.1662303664921  0 8.57002617801047  0 6.73232984293194  C 0 4.85929319371728  0.654761904761905 3.26897905759162  1.96428571428571 1.96138743455497  C 3.27380952380952 0.653795811518325  4.875 0  6.76785714285714 0  C 8.64880952380952 0  10.2738095238095 0.665575916230362  11.6428571428571 1.9967277486911  L 22.4464285714286 12.7048429319372  C 22.5654761904762 12.8226439790576  22.625 12.9522251308901  22.625 13.0935863874346  C 22.625 13.2820680628272  22.4434523809524 13.5559554973822  22.0803571428571 13.9152486910995  C 21.7172619047619 14.2745418848168  21.4404761904762 14.4541884816754  21.25 14.4541884816754  C 21.0952380952381 14.4541884816754  20.9583333333333 14.3952879581152  20.8392857142857 14.2774869109948  L 10.0178571428571 3.55170157068063  C 9.07738095238095 2.6446335078534  8 2.19109947643979  6.78571428571429 2.19109947643979  C 5.52380952380952 2.19109947643979  4.45833333333333 2.63285340314136  3.58928571428571 3.5163612565445  C 2.7202380952381 4.39986910994764  2.28571428571429 5.46596858638743  2.28571428571429 6.71465968586387  C 2.28571428571429 7.95157068062827  2.73809523809524 9.01767015706806  3.64285714285714 9.91295811518325  L 17.5 23.6426701570681  C 18.25 24.3848167539267  19.1130952380952 24.755890052356  20.0892857142857 24.755890052356  C 20.8511904761905 24.755890052356  21.4821428571429 24.5085078534031  21.9821428571429 24.0137434554974  C 22.4821428571429 23.5189790575916  22.7321428571429 22.8946335078534  22.7321428571429 22.1407068062827  C 22.7321428571429 21.1747382198953  22.3571428571429 20.3206806282723  21.6071428571429 19.5785340314136  L 11.2321428571429 9.31217277486911  C 10.922619047619 9.0294502617801  10.5654761904762 8.8880890052356  10.1607142857143 8.8880890052356  C 9.81547619047619 8.8880890052356  9.52976190476191 9  9.30357142857143 9.2238219895288  C 9.07738095238095 9.44764397905759  8.96428571428572 9.7303664921466  8.96428571428572 10.0719895287958  C 8.96428571428572 10.4489528795811  9.11309523809524 10.7964659685864  9.41071428571429 11.1145287958115  L 16.7321428571429 18.3592931937173  C 16.8511904761905 18.4770942408377  16.9107142857143 18.6066753926702  16.9107142857143 18.7480366492147  C 16.9107142857143 18.9365183246073  16.7261904761905 19.2133507853403  16.3571428571429 19.5785340314136  C 15.9880952380952 19.9437172774869  15.7083333333333 20.1263089005236  15.5178571428571 20.1263089005236  C 15.375 20.1263089005236  15.2440476190476 20.0674083769634  15.125 19.9496073298429  L 7.80357142857143 12.7048429319372  C 7.05357142857143 11.9862565445026  6.67857142857143 11.1086387434555  6.67857142857143 10.0719895287958  C 6.67857142857143 9.10602094240838  7.01785714285714 8.28730366492147  7.69642857142857 7.61583769633508  C 8.375 6.94437172774869  9.20238095238095 6.6086387434555  10.1785714285714 6.6086387434555  C 11.2261904761905 6.6086387434555  12.1130952380952 6.97971204188481  12.8392857142857 7.72185863874345  L 23.2142857142857 17.988219895288  Z " fill-rule="nonzero" fill="#000000" stroke="none" transform="matrix(1 0 0 1 85 17 )" />
  </g>
</svg>