<?xml version="1.0" encoding="utf-8"?>
<svg version="1.1" xmlns:xlink="http://www.w3.org/1999/xlink" width="34px" height="34px" xmlns="http://www.w3.org/2000/svg">
  <g transform="matrix(1 0 0 1 -245 -16 )">
    <path d="M 23 11.3810096153846  L 11.3810096153846 23  L 23 23  L 23 11.3810096153846  Z M 11 11  L 11 22.6189903846154  L 22.6189903846154 11  L 11 11  Z M 33.8161057692308 23.7223557692308  C 33.9387019230769 23.8449519230769  34 24.0016025641026  34 24.1923076923077  L 34 28.1153846153846  C 34 28.3060897435897  33.9387019230769 28.4627403846154  33.8161057692308 28.5853365384615  C 33.6935096153846 28.7079326923077  33.536858974359 28.7692307692308  33.3461538461538 28.7692307692308  L 28.7692307692308 28.7692307692308  L 28.7692307692308 33.3461538461538  C 28.7692307692308 33.536858974359  28.7079326923077 33.6935096153846  28.5853365384615 33.8161057692308  C 28.4627403846154 33.9387019230769  28.3060897435897 34  28.1153846153846 34  L 24.1923076923077 34  C 24.0016025641026 34  23.8449519230769 33.9387019230769  23.7223557692308 33.8161057692308  C 23.5997596153846 33.6935096153846  23.5384615384615 33.536858974359  23.5384615384615 33.3461538461538  L 23.5384615384615 28.7692307692308  L 5.88461538461538 28.7692307692308  C 5.69391025641026 28.7692307692308  5.53725961538462 28.7079326923077  5.41466346153846 28.5853365384615  C 5.29206730769231 28.4627403846154  5.23076923076923 28.3060897435897  5.23076923076923 28.1153846153846  L 5.23076923076923 10.4615384615385  L 0.653846153846154 10.4615384615385  C 0.463141025641026 10.4615384615385  0.306490384615385 10.4002403846154  0.183894230769231 10.2776442307692  C 0.0612980769230769 10.1550480769231  0 9.99839743589743  0 9.80769230769231  L 0 5.88461538461539  C 0 5.69391025641026  0.0612980769230769 5.53725961538461  0.183894230769231 5.41466346153846  C 0.306490384615385 5.29206730769231  0.463141025641026 5.23076923076923  0.653846153846154 5.23076923076923  L 5.23076923076923 5.23076923076923  L 5.23076923076923 0.653846153846155  C 5.23076923076923 0.463141025641024  5.29206730769231 0.306490384615386  5.41466346153846 0.183894230769231  C 5.53725961538462 0.0612980769230758  5.69391025641026 0  5.88461538461538 0  L 9.80769230769231 0  C 9.99839743589744 0  10.1550480769231 0.0612980769230758  10.2776442307692 0.183894230769231  C 10.4002403846154 0.306490384615386  10.4615384615385 0.463141025641024  10.4615384615385 0.653846153846155  L 10.4615384615385 5.23076923076923  L 27.8497596153846 5.23076923076923  L 32.8762019230769 0.183894230769231  C 33.0124198717949 0.0612980769230758  33.1690705128205 0  33.3461538461538 0  C 33.5232371794872 0  33.6798878205128 0.0612980769230758  33.8161057692308 0.183894230769231  C 33.9387019230769 0.320112179487176  34 0.476762820512821  34 0.653846153846155  C 34 0.830929487179482  33.9387019230769 0.987580128205128  33.8161057692308 1.12379807692308  L 28.7692307692308 6.15024038461539  L 28.7692307692308 23.5384615384615  L 33.3461538461538 23.5384615384615  C 33.536858974359 23.5384615384615  33.6935096153846 23.5997596153846  33.8161057692308 23.7223557692308  Z " fill-rule="nonzero" fill="#000000" stroke="none" transform="matrix(1 0 0 1 245 16 )" />
  </g>
</svg>