<?xml version="1.0" encoding="utf-8"?>
<svg version="1.1" xmlns:xlink="http://www.w3.org/1999/xlink" width="34px" height="34px" xmlns="http://www.w3.org/2000/svg">
  <g transform="matrix(1 0 0 1 -302 -16 )">
    <path d="M 28.2067039106145 1.02455357142857  C 28.9538175046555 0.341517857142859  29.7769087523277 0  30.6759776536313 0  C 31.5623836126629 0  32.3379888268156 0.294084821428573  33.0027932960894 0.882254464285714  C 33.6675977653631 1.47042410714286  34 2.20721726190476  34 3.09263392857143  C 34 3.88950892857143  33.7150837988827 4.84449404761904  33.145251396648 5.95758928571429  C 28.9411545623836 13.9136904761905  25.9970204841713 18.6696428571429  24.3128491620112 20.2254464285714  C 23.0845437616387 21.3764880952381  21.7042830540037 21.9520089285714  20.1720670391061 21.9520089285714  C 18.5765363128492 21.9520089285714  17.2057728119181 21.3670014880952  16.0597765363129 20.1969866071429  C 14.9137802607076 19.0269717261905  14.340782122905 17.6387648809524  14.340782122905 16.0323660714286  C 14.340782122905 14.4133184523809  14.9232774674115 13.0725446428571  16.0882681564246 12.0100446428571  L 28.2067039106145 1.02455357142857  Z M 11.0357541899441 19.8175223214286  C 11.6942271880819 19.72265625  12.4856610800745 19.65625  13.4100558659218 19.6183035714286  C 13.9039106145251 20.5796130952381  14.5782122905028 21.4017857142857  15.4329608938547 22.0848214285714  C 16.2877094972067 22.7678571428571  17.2405959031657 23.2485119047619  18.2916201117318 23.5267857142857  L 18.3106145251397 24.8738839285714  C 18.3612662942272 27.5680803571429  17.5413407821229 29.7626488095238  15.8508379888268 31.4575892857143  C 14.1603351955307 33.1525297619048  11.9538175046555 34  9.23128491620112 34  C 7.67374301675978 34  6.29348230912477 33.7059151785714  5.09050279329609 33.1177455357143  C 3.88752327746741 32.5295758928571  2.9219739292365 31.7232142857143  2.19385474860335 30.6986607142857  C 1.4657355679702 29.6741071428571  0.91806331471136 28.5167410714286  0.550837988826816 27.2265625  C 0.183612662942272 25.9363839285714  0 24.5450148809524  0 23.0524553571429  C 0.0886405959031658 23.1156994047619  0.348230912476723 23.305431547619  0.77877094972067 23.6216517857143  C 1.20931098696462 23.9378720238095  1.60186219739292 24.2193080357143  1.95642458100559 24.4659598214286  C 2.31098696461825 24.7126116071429  2.68454376163873 24.9434523809524  3.07709497206704 25.1584821428571  C 3.46964618249535 25.3735119047619  3.7608938547486 25.4810267857143  3.95083798882682 25.4810267857143  C 4.47001862197393 25.4810267857143  4.81824953445065 25.2470238095238  4.99553072625698 24.7790178571429  C 5.312104283054 23.9441964285714  5.67616387337058 23.2327008928571  6.0877094972067 22.64453125  C 6.49925512104283 22.0563616071429  6.93929236499069 21.5757068452381  7.40782122905028 21.2025669642857  C 7.87635009310987 20.8294270833333  8.43351955307262 20.5290178571429  9.07932960893855 20.3013392857143  C 9.72513966480447 20.0736607142857  10.3772811918063 19.9123883928571  11.0357541899441 19.8175223214286  Z " fill-rule="nonzero" fill="#000000" stroke="none" transform="matrix(1 0 0 1 302 16 )" />
  </g>
</svg>