<?xml version="1.0" encoding="utf-8"?>
<svg version="1.1" xmlns:xlink="http://www.w3.org/1999/xlink" width="33px" height="25px" xmlns="http://www.w3.org/2000/svg">
  <g transform="matrix(1 0 0 1 -300 -687 )">
    <path d="M 32.4038709677419 3.45117845117845  C 32.8012903225806 3.84399551066218  33 4.32098765432099  33 4.88215488215488  C 33 5.44332210998877  32.8012903225806 5.92031425364759  32.4038709677419 6.31313131313131  L 16.9896774193548 21.5488215488215  L 14.0941935483871 24.4107744107744  C 13.6967741935484 24.8035914702581  13.2141935483871 25  12.6464516129032 25  C 12.0787096774194 25  11.5961290322581 24.8035914702581  11.1987096774194 24.4107744107744  L 8.30322580645161 21.5488215488215  L 0.596129032258065 13.9309764309764  C 0.198709677419355 13.5381593714927  0 13.0611672278339  0 12.5  C 0 11.9388327721661  0.198709677419355 11.4618406285073  0.596129032258065 11.0690235690236  L 3.49161290322581 8.20707070707071  C 3.88903225806452 7.81425364758698  4.37161290322581 7.61784511784512  4.93935483870968 7.61784511784512  C 5.50709677419355 7.61784511784512  5.98967741935484 7.81425364758698  6.38709677419355 8.20707070707071  L 12.6464516129032 14.4149831649832  L 26.6129032258064 0.589225589225589  C 27.0103225806452 0.196408529741862  27.4929032258065 0  28.0606451612903 0  C 28.6283870967742 0  29.1109677419355 0.196408529741862  29.5083870967742 0.589225589225589  L 32.4038709677419 3.45117845117845  Z " fill-rule="nonzero" fill="#000000" stroke="none" transform="matrix(1 0 0 1 300 687 )" />
  </g>
</svg>