<?xml version="1.0" encoding="utf-8"?>
<svg version="1.1" xmlns:xlink="http://www.w3.org/1999/xlink" width="84px" height="84px" xmlns="http://www.w3.org/2000/svg">
  <g transform="matrix(1 0 0 1 -138 -631 )">
    <path d="M 180 631  C 203.52 631  222 649.48  222 673  C 222 696.52  203.52 715  180 715  C 156.48 715  138 696.52  138 673  C 138 649.48  156.48 631  180 631  Z " fill-rule="nonzero" fill="#ffffff" stroke="none" />
    <path d="M 180 631.5  C 203.24 631.5  221.5 649.76  221.5 673  C 221.5 696.24  203.24 714.5  180 714.5  C 156.76 714.5  138.5 696.24  138.5 673  C 138.5 649.76  156.76 631.5  180 631.5  Z " stroke-width="1" stroke="#797979" fill="none" />
  </g>
</svg>