<?xml version="1.0" encoding="utf-8"?>
<svg version="1.1" xmlns:xlink="http://www.w3.org/1999/xlink" width="38px" height="38px" xmlns="http://www.w3.org/2000/svg">
  <g transform="matrix(1 0 0 1 -310 -6 )">
    <path d="M 23.4778645833333 23.4778645833333  C 24.71484375 22.2408854166667  25.3333333333333 20.7482638888889  25.3333333333333 19  C 25.3333333333333 17.2517361111111  24.71484375 15.7591145833333  23.4778645833333 14.5221354166667  C 22.2408854166667 13.28515625  20.7482638888889 12.6666666666667  19 12.6666666666667  C 17.2517361111111 12.6666666666667  15.7591145833333 13.28515625  14.5221354166667 14.5221354166667  C 13.28515625 15.7591145833333  12.6666666666667 17.2517361111111  12.6666666666667 19  C 12.6666666666667 20.7482638888889  13.28515625 22.2408854166667  14.5221354166667 23.4778645833333  C 15.7591145833333 24.71484375  17.2517361111111 25.3333333333333  19 25.3333333333333  C 20.7482638888889 25.3333333333333  22.2408854166667 24.71484375  23.4778645833333 23.4778645833333  Z M 37.8020833333333 15.7220052083333  C 37.9340277777778 15.8951822916667  38 16.0889756944444  38 16.3033854166667  L 38 21.7955729166667  C 38 21.9934895833333  37.9340277777778 22.1831597222222  37.8020833333333 22.3645833333333  C 37.6701388888889 22.5460069444444  37.5052083333333 22.6532118055556  37.3072916666667 22.6861979166667  L 32.73046875 23.37890625  C 32.4171006944445 24.26953125  32.0954861111111 25.0199652777778  31.765625 25.6302083333333  C 32.3428819444445 26.4548611111111  33.2252604166667 27.5928819444444  34.4127604166667 29.0442708333333  C 34.5776909722222 29.2421875  34.66015625 29.4483506944444  34.66015625 29.6627604166667  C 34.66015625 29.8771701388889  34.5859375 30.0668402777778  34.4375 30.2317708333333  C 33.9921875 30.8420138888889  33.17578125 31.7326388888889  31.98828125 32.9036458333333  C 30.80078125 34.0746527777778  30.0256076388889 34.66015625  29.6627604166667 34.66015625  C 29.46484375 34.66015625  29.2504340277778 34.5859375  29.01953125 34.4375  L 25.60546875 31.765625  C 24.8797743055556 32.1449652777778  24.1293402777778 32.4583333333333  23.3541666666667 32.7057291666667  C 23.0902777777778 34.9487847222222  22.8511284722222 36.4826388888889  22.63671875 37.3072916666667  C 22.5212673611111 37.7690972222222  22.2243923611111 38  21.74609375 38  L 16.25390625 38  C 16.0230034722222 38  15.8209635416667 37.9299045138889  15.6477864583333 37.7897135416667  C 15.474609375 37.6495225694444  15.3797743055556 37.4722222222222  15.36328125 37.2578125  L 14.6705729166667 32.7057291666667  C 13.8624131944444 32.4418402777778  13.1202256944444 32.13671875  12.4440104166667 31.7903645833333  L 8.95572916666667 34.4375  C 8.79079861111111 34.5859375  8.58463541666667 34.66015625  8.33723958333333 34.66015625  C 8.10633680555556 34.66015625  7.90017361111111 34.5694444444444  7.71875 34.3880208333333  C 5.640625 32.5078125  4.27994791666667 31.1223958333333  3.63671875 30.2317708333333  C 3.52126736111111 30.0668402777778  3.46354166666667 29.8771701388889  3.46354166666667 29.6627604166667  C 3.46354166666667 29.46484375  3.52951388888889 29.2751736111111  3.66145833333333 29.09375  C 3.90885416666667 28.7473958333333  4.32942708333333 28.1990017361111  4.92317708333333 27.4485677083333  C 5.51692708333333 26.6981336805556  5.96223958333333 26.1167534722222  6.25911458333333 25.7044270833333  C 5.81380208333333 24.8797743055556  5.47569444444444 24.0633680555556  5.24479166666667 23.2552083333333  L 0.717447916666667 22.5872395833333  C 0.503038194444445 22.5542534722222  0.329861111111111 22.451171875  0.197916666666667 22.2779947916667  C 0.0659722222222222 22.1048177083333  0 21.9110243055556  0 21.6966145833333  L 0 16.2044270833333  C 0 16.0065104166667  0.0659722222222222 15.8168402777778  0.197916666666667 15.6354166666667  C 0.329861111111111 15.4539930555556  0.486545138888889 15.3467881944444  0.66796875 15.3138020833333  L 5.26953125 14.62109375  C 5.50043402777778 13.8624131944444  5.82204861111111 13.1037326388889  6.234375 12.3450520833333  C 5.57465277777778 11.4049479166667  4.69227430555556 10.2669270833333  3.58723958333333 8.93098958333333  C 3.42230902777778 8.73307291666667  3.33984375 8.53515625  3.33984375 8.33723958333333  C 3.33984375 8.17230902777778  3.4140625 7.98263888888888  3.5625 7.76822916666667  C 3.99131944444444 7.17447916666667  4.80360243055556 6.28797743055555  5.99934895833333 5.10872395833333  C 7.19509548611111 3.92947048611111  7.97439236111111 3.33984375  8.33723958333333 3.33984375  C 8.55164930555556 3.33984375  8.76605902777778 3.42230902777778  8.98046875 3.58723958333333  L 12.39453125 6.234375  C 13.1202256944444 5.85503472222222  13.8706597222222 5.54166666666667  14.6458333333333 5.29427083333333  C 14.9097222222222 3.05121527777778  15.1488715277778 1.51736111111111  15.36328125 0.692708333333332  C 15.4787326388889 0.230902777777776  15.7756076388889 0  16.25390625 0  L 21.74609375 0  C 21.9769965277778 0  22.1790364583333 0.0700954861111078  22.3522135416667 0.210286458333332  C 22.525390625 0.350477430555552  22.6202256944444 0.527777777777776  22.63671875 0.7421875  L 23.3294270833333 5.29427083333333  C 24.1375868055556 5.55815972222222  24.8797743055556 5.86328125  25.5559895833333 6.20963541666667  L 29.0690104166667 3.5625  C 29.2174479166667 3.4140625  29.4153645833333 3.33984375  29.6627604166667 3.33984375  C 29.8771701388889 3.33984375  30.0833333333333 3.42230902777778  30.28125 3.58723958333333  C 32.4088541666667 5.54991319444444  33.76953125 6.95182291666667  34.36328125 7.79296875  C 34.4787326388889 7.92491319444444  34.5364583333333 8.10633680555555  34.5364583333333 8.33723958333333  C 34.5364583333333 8.53515625  34.4704861111111 8.72482638888888  34.3385416666667 8.90625  C 34.0911458333333 9.25260416666667  33.6705729166667 9.80099826388888  33.0768229166667 10.5514322916667  C 32.4830729166667 11.3018663194444  32.0377604166667 11.8832465277778  31.7408854166667 12.2955729166667  C 32.1697048611111 13.1202256944444  32.5078125 13.9283854166667  32.7552083333333 14.7200520833333  L 37.2825520833333 15.4127604166667  C 37.4969618055556 15.4457465277778  37.6701388888889 15.548828125  37.8020833333333 15.7220052083333  Z " fill-rule="nonzero" fill="#000000" stroke="none" transform="matrix(1 0 0 1 310 6 )" />
  </g>
</svg>