<?xml version="1.0" encoding="utf-8"?>
<svg version="1.1" xmlns:xlink="http://www.w3.org/1999/xlink" width="20px" height="36px" xmlns="http://www.w3.org/2000/svg">
  <g transform="matrix(1 0 0 1 -259 -7 )">
    <path d="M 18.9755011135857 9.15144230769231  C 19.2576095025984 9.15144230769231  19.5100222717149 9.25961538461538  19.7327394209354 9.47596153846154  C 20 9.76442307692308  20.0519673348181 10.0817307692308  19.8886414253898 10.4278846153846  L 7.8619153674833 35.4591346153846  C 7.66889383815887 35.8197115384615  7.35708982925019 36  6.92650334075724 36  C 6.86711210096511 36  6.76317743132888 35.9855769230769  6.61469933184855 35.9567307692308  C 6.362286562732 35.8846153846154  6.17297698589458 35.7475961538462  6.0467706013363 35.5456730769231  C 5.92056421677803 35.34375  5.88715664439495 35.1274038461538  5.94654788418708 34.8966346153846  L 10.3340757238307 17.4158653846154  L 1.29175946547884 19.6009615384615  C 1.23236822568671 19.6153846153846  1.14328136599852 19.6225961538462  1.02449888641425 19.6225961538462  C 0.757238307349666 19.6225961538462  0.52709725315516 19.5432692307692  0.334075723830735 19.3846153846154  C 0.066815144766147 19.1682692307692  -0.0296956198960653 18.8870192307692  0.044543429844098 18.5408653846154  L 4.52115812917595 0.692307692307694  C 4.58054936896808 0.490384615384614  4.69933184855234 0.324519230769233  4.87750556792873 0.194711538461539  C 5.05567928730512 0.0649038461538449  5.26354862657758 0  5.5011135857461 0  L 12.8062360801782 0  C 13.0883444691908 0  13.3259094283593 0.090144230769226  13.5189309576837 0.270432692307694  C 13.7119524870082 0.450721153846154  13.8084632516704 0.663461538461536  13.8084632516704 0.908653846153845  C 13.8084632516704 1.02403846153846  13.7713437268003 1.15384615384615  13.6971046770601 1.29807692307692  L 9.88864142538976 11.3149038461538  L 18.7082405345212 9.19471153846154  C 18.8270230141054 9.16586538461538  18.9161098737936 9.15144230769231  18.9755011135857 9.15144230769231  Z " fill-rule="nonzero" fill="#000000" stroke="none" transform="matrix(1 0 0 1 259 7 )" />
  </g>
</svg>