<?xml version="1.0" encoding="utf-8"?>
<svg version="1.1" xmlns:xlink="http://www.w3.org/1999/xlink" width="31px" height="31px" xmlns="http://www.w3.org/2000/svg">
  <g transform="matrix(1 0 0 1 -240 -15 )">
    <path d="M 19.01171875 19.01171875  C 20.6449318910256 17.3785056089744  21.4615384615385 15.4130608974359  21.4615384615385 13.1153846153846  C 21.4615384615385 10.8177083333333  20.6449318910256 8.85226362179487  19.01171875 7.21905048076923  C 17.3785056089744 5.58583733974359  15.4130608974359 4.76923076923077  13.1153846153846 4.76923076923077  C 10.8177083333333 4.76923076923077  8.85226362179487 5.58583733974359  7.21905048076923 7.21905048076923  C 5.58583733974359 8.85226362179487  4.76923076923077 10.8177083333333  4.76923076923077 13.1153846153846  C 4.76923076923077 15.4130608974359  5.58583733974359 17.3785056089744  7.21905048076923 19.01171875  C 8.85226362179487 20.6449318910256  10.8177083333333 21.4615384615385  13.1153846153846 21.4615384615385  C 15.4130608974359 21.4615384615385  17.3785056089744 20.6449318910256  19.01171875 19.01171875  Z M 30.3106971153846 26.9387019230769  C 30.7702323717949 27.3982371794872  31 27.9571314102564  31 28.6153846153846  C 31 29.261217948718  30.7640224358974 29.8201121794872  30.2920673076923 30.2920673076923  C 29.8201121794872 30.7640224358974  29.261217948718 31  28.6153846153846 31  C 27.9447115384615 31  27.3858173076923 30.7640224358974  26.9387019230769 30.2920673076923  L 20.5486778846154 23.9206730769231  C 18.3255208333333 25.4607371794872  15.8477564102564 26.2307692307692  13.1153846153846 26.2307692307692  C 11.3393429487179 26.2307692307692  9.64092548076923 25.8861177884615  8.02013221153846 25.1968149038462  C 6.39933894230769 24.5075120192308  5.00210336538462 23.5760216346154  3.82842548076923 22.40234375  C 2.65474759615385 21.2286658653846  1.72325721153846 19.8314302884615  1.03395432692308 18.2106370192308  C 0.344651442307692 16.58984375  0 14.8914262820513  0 13.1153846153846  C 0 11.3393429487179  0.344651442307692 9.64092548076923  1.03395432692308 8.02013221153846  C 1.72325721153846 6.39933894230769  2.65474759615385 5.00210336538462  3.82842548076923 3.82842548076923  C 5.00210336538462 2.65474759615385  6.39933894230769 1.72325721153846  8.02013221153846 1.03395432692308  C 9.64092548076923 0.344651442307692  11.3393429487179 0  13.1153846153846 0  C 14.8914262820513 0  16.58984375 0.344651442307692  18.2106370192308 1.03395432692308  C 19.8314302884615 1.72325721153846  21.2286658653846 2.65474759615385  22.40234375 3.82842548076923  C 23.5760216346154 5.00210336538462  24.5075120192308 6.39933894230769  25.1968149038462 8.02013221153846  C 25.8861177884615 9.64092548076923  26.2307692307692 11.3393429487179  26.2307692307692 13.1153846153846  C 26.2307692307692 15.8477564102564  25.4607371794872 18.3255208333333  23.9206730769231 20.5486778846154  L 30.3106971153846 26.9387019230769  Z " fill-rule="nonzero" fill="#000000" stroke="none" transform="matrix(1 0 0 1 240 15 )" />
  </g>
</svg>