<?xml version="1.0" encoding="utf-8"?>
<svg version="1.1" xmlns:xlink="http://www.w3.org/1999/xlink" width="33px" height="33px" xmlns="http://www.w3.org/2000/svg">
  <g transform="matrix(1 0 0 1 -165 -14 )">
    <path d="M 32.34375 12.65625  C 32.78125 13.09375  33 13.625  33 14.25  L 33 18.75  C 33 19.375  32.78125 19.90625  32.34375 20.34375  C 31.90625 20.78125  31.375 21  30.75 21  L 21 21  L 21 30.75  C 21 31.375  20.78125 31.90625  20.34375 32.34375  C 19.90625 32.78125  19.375 33  18.75 33  L 14.25 33  C 13.625 33  13.09375 32.78125  12.65625 32.34375  C 12.21875 31.90625  12 31.375  12 30.75  L 12 21  L 2.25 21  C 1.625 21  1.09375 20.78125  0.65625 20.34375  C 0.21875 19.90625  0 19.375  0 18.75  L 0 14.25  C 0 13.625  0.21875 13.09375  0.65625 12.65625  C 1.09375 12.21875  1.625 12  2.25 12  L 12 12  L 12 2.25  C 12 1.625  12.21875 1.09375  12.65625 0.65625  C 13.09375 0.218749999999999  13.625 0  14.25 0  L 18.75 0  C 19.375 0  19.90625 0.218749999999999  20.34375 0.65625  C 20.78125 1.09375  21 1.625  21 2.25  L 21 12  L 30.75 12  C 31.375 12  31.90625 12.21875  32.34375 12.65625  Z " fill-rule="nonzero" fill="#000000" stroke="none" transform="matrix(1 0 0 1 165 14 )" />
  </g>
</svg>