<?xml version="1.0" encoding="utf-8"?>
<svg version="1.1" xmlns:xlink="http://www.w3.org/1999/xlink" width="28px" height="22px" xmlns="http://www.w3.org/2000/svg">
  <g transform="matrix(1 0 0 1 -94 -19 )">
    <path d="M 3.8515625 18.1484375  C 3.95052083333333 18.2473958333333  4 18.3645833333333  4 18.5  L 4 21.5  C 4 21.6354166666667  3.95052083333333 21.7526041666667  3.8515625 21.8515625  C 3.75260416666667 21.9505208333333  3.63541666666667 22  3.5 22  L 0.5 22  C 0.364583333333333 22  0.247395833333333 21.9505208333333  0.1484375 21.8515625  C 0.0494791666666667 21.7526041666667  0 21.6354166666667  0 21.5  L 0 18.5  C 0 18.3645833333333  0.0494791666666667 18.2473958333333  0.1484375 18.1484375  C 0.247395833333333 18.0494791666667  0.364583333333333 18  0.5 18  L 3.5 18  C 3.63541666666667 18  3.75260416666667 18.0494791666667  3.8515625 18.1484375  Z M 3.8515625 12.1484375  C 3.95052083333333 12.2473958333333  4 12.3645833333333  4 12.5  L 4 15.5  C 4 15.6354166666667  3.95052083333333 15.7526041666667  3.8515625 15.8515625  C 3.75260416666667 15.9505208333333  3.63541666666667 16  3.5 16  L 0.5 16  C 0.364583333333333 16  0.247395833333333 15.9505208333333  0.1484375 15.8515625  C 0.0494791666666667 15.7526041666667  0 15.6354166666667  0 15.5  L 0 12.5  C 0 12.3645833333333  0.0494791666666667 12.2473958333333  0.1484375 12.1484375  C 0.247395833333333 12.0494791666667  0.364583333333333 12  0.5 12  L 3.5 12  C 3.63541666666667 12  3.75260416666667 12.0494791666667  3.8515625 12.1484375  Z M 3.8515625 6.1484375  C 3.95052083333333 6.24739583333333  4 6.36458333333333  4 6.5  L 4 9.5  C 4 9.63541666666667  3.95052083333333 9.75260416666667  3.8515625 9.8515625  C 3.75260416666667 9.95052083333333  3.63541666666667 10  3.5 10  L 0.5 10  C 0.364583333333333 10  0.247395833333333 9.95052083333333  0.1484375 9.8515625  C 0.0494791666666667 9.75260416666667  0 9.63541666666667  0 9.5  L 0 6.5  C 0 6.36458333333333  0.0494791666666667 6.24739583333333  0.1484375 6.1484375  C 0.247395833333333 6.04947916666667  0.364583333333333 6  0.5 6  L 3.5 6  C 3.63541666666667 6  3.75260416666667 6.04947916666667  3.8515625 6.1484375  Z M 27.8515625 18.1484375  C 27.9505208333333 18.2473958333333  28 18.3645833333333  28 18.5  L 28 21.5  C 28 21.6354166666667  27.9505208333333 21.7526041666667  27.8515625 21.8515625  C 27.7526041666667 21.9505208333333  27.6354166666667 22  27.5 22  L 6.5 22  C 6.36458333333333 22  6.24739583333333 21.9505208333333  6.1484375 21.8515625  C 6.04947916666667 21.7526041666667  6 21.6354166666667  6 21.5  L 6 18.5  C 6 18.3645833333333  6.04947916666667 18.2473958333333  6.1484375 18.1484375  C 6.24739583333333 18.0494791666667  6.36458333333333 18  6.5 18  L 27.5 18  C 27.6354166666667 18  27.7526041666667 18.0494791666667  27.8515625 18.1484375  Z M 3.8515625 0.148437499999999  C 3.95052083333333 0.247395833333333  4 0.364583333333331  4 0.5  L 4 3.5  C 4 3.63541666666667  3.95052083333333 3.75260416666666  3.8515625 3.8515625  C 3.75260416666667 3.95052083333333  3.63541666666667 4  3.5 4  L 0.5 4  C 0.364583333333333 4  0.247395833333333 3.95052083333333  0.1484375 3.8515625  C 0.0494791666666667 3.75260416666666  0 3.63541666666667  0 3.5  L 0 0.5  C 0 0.364583333333331  0.0494791666666667 0.247395833333333  0.1484375 0.148437499999999  C 0.247395833333333 0.0494791666666632  0.364583333333333 0  0.5 0  L 3.5 0  C 3.63541666666667 0  3.75260416666667 0.0494791666666632  3.8515625 0.148437499999999  Z M 27.8515625 12.1484375  C 27.9505208333333 12.2473958333333  28 12.3645833333333  28 12.5  L 28 15.5  C 28 15.6354166666667  27.9505208333333 15.7526041666667  27.8515625 15.8515625  C 27.7526041666667 15.9505208333333  27.6354166666667 16  27.5 16  L 6.5 16  C 6.36458333333333 16  6.24739583333333 15.9505208333333  6.1484375 15.8515625  C 6.04947916666667 15.7526041666667  6 15.6354166666667  6 15.5  L 6 12.5  C 6 12.3645833333333  6.04947916666667 12.2473958333333  6.1484375 12.1484375  C 6.24739583333333 12.0494791666667  6.36458333333333 12  6.5 12  L 27.5 12  C 27.6354166666667 12  27.7526041666667 12.0494791666667  27.8515625 12.1484375  Z M 27.8515625 6.1484375  C 27.9505208333333 6.24739583333333  28 6.36458333333333  28 6.5  L 28 9.5  C 28 9.63541666666667  27.9505208333333 9.75260416666667  27.8515625 9.8515625  C 27.7526041666667 9.95052083333333  27.6354166666667 10  27.5 10  L 6.5 10  C 6.36458333333333 10  6.24739583333333 9.95052083333333  6.1484375 9.8515625  C 6.04947916666667 9.75260416666667  6 9.63541666666667  6 9.5  L 6 6.5  C 6 6.36458333333333  6.04947916666667 6.24739583333333  6.1484375 6.1484375  C 6.24739583333333 6.04947916666667  6.36458333333333 6  6.5 6  L 27.5 6  C 27.6354166666667 6  27.7526041666667 6.04947916666667  27.8515625 6.1484375  Z M 27.8515625 0.148437499999999  C 27.9505208333333 0.247395833333333  28 0.364583333333331  28 0.5  L 28 3.5  C 28 3.63541666666667  27.9505208333333 3.75260416666666  27.8515625 3.8515625  C 27.7526041666667 3.95052083333333  27.6354166666667 4  27.5 4  L 6.5 4  C 6.36458333333333 4  6.24739583333333 3.95052083333333  6.1484375 3.8515625  C 6.04947916666667 3.75260416666666  6 3.63541666666667  6 3.5  L 6 0.5  C 6 0.364583333333331  6.04947916666667 0.247395833333333  6.1484375 0.148437499999999  C 6.24739583333333 0.0494791666666632  6.36458333333333 0  6.5 0  L 27.5 0  C 27.6354166666667 0  27.7526041666667 0.0494791666666632  27.8515625 0.148437499999999  Z " fill-rule="nonzero" fill="#000000" stroke="none" transform="matrix(1 0 0 1 94 19 )" />
  </g>
</svg>