<?xml version="1.0" encoding="utf-8"?>
<svg version="1.1" xmlns:xlink="http://www.w3.org/1999/xlink" width="20px" height="34px" xmlns="http://www.w3.org/2000/svg">
  <g transform="matrix(1 0 0 1 -215 -15 )">
    <path d="M 19.6563573883161 16.2164328657315  C 19.8854524627721 16.4435537742151  20 16.7047428189713  20 17  C 20 17.2952571810287  19.8854524627721 17.5564462257849  19.6563573883161 17.7835671342685  L 3.6426116838488 33.6593186372746  C 3.4135166093929 33.8864395457582  3.15005727376861 34  2.85223367697594 34  C 2.55441008018328 34  2.29095074455899 33.8864395457582  2.06185567010309 33.6593186372746  L 0.343642611683849 31.9559118236473  C 0.11454753722795 31.7287909151637  0 31.4676018704075  0 31.1723446893788  C 0 30.87708750835  0.11454753722795 30.6158984635939  0.343642611683849 30.3887775551102  L 13.8487972508591 17  L 0.343642611683849 3.61122244488978  C 0.11454753722795 3.38410153640614  0 3.12291249164997  0 2.82765531062124  C 0 2.53239812959251  0.11454753722795 2.27120908483634  0.343642611683849 2.0440881763527  L 2.06185567010309 0.340681362725451  C 2.29095074455899 0.113560454241816  2.55441008018328 0  2.85223367697594 0  C 3.15005727376861 0  3.4135166093929 0.113560454241816  3.6426116838488 0.340681362725451  L 19.6563573883161 16.2164328657315  Z " fill-rule="nonzero" fill="#000000" stroke="none" transform="matrix(1 0 0 1 215 15 )" />
  </g>
</svg>