<?xml version="1.0" encoding="utf-8"?>
<svg version="1.1" xmlns:xlink="http://www.w3.org/1999/xlink" width="25px" height="34px" xmlns="http://www.w3.org/2000/svg">
  <g transform="matrix(1 0 0 1 -24 -133 )">
    <path d="M 16.1351351351351 25.81875  C 16.3513513513514 26.03125  16.4594594594595 26.2791666666667  16.4594594594595 26.5625  L 16.4594594594595 32.9375  C 16.4594594594595 33.2208333333333  16.3513513513514 33.46875  16.1351351351351 33.68125  C 15.9189189189189 33.89375  15.6666666666667 34  15.3783783783784 34  L 8.89189189189189 34  C 8.6036036036036 34  8.35135135135135 33.89375  8.13513513513514 33.68125  C 7.91891891891892 33.46875  7.81081081081081 33.2208333333333  7.81081081081081 32.9375  L 7.81081081081081 26.5625  C 7.81081081081081 26.2791666666667  7.91891891891892 26.03125  8.13513513513514 25.81875  C 8.35135135135135 25.60625  8.6036036036036 25.5  8.89189189189189 25.5  L 15.3783783783784 25.5  C 15.6666666666667 25.5  15.9189189189189 25.60625  16.1351351351351 25.81875  Z M 23.8918918918919 6.41484375  C 24.6306306306306 7.75182291666666  25 9.15520833333333  25 10.625  C 25 11.58125  24.8603603603604 12.4755208333333  24.5810810810811 13.3078125  C 24.3018018018018 14.1401041666667  23.9864864864865 14.8174479166667  23.6351351351351 15.33984375  C 23.2837837837838 15.8622395833333  22.7882882882883 16.3890625  22.1486486486486 16.9203125  C 21.509009009009 17.4515625  20.990990990991 17.83671875  20.5945945945946 18.07578125  C 20.1981981981982 18.31484375  19.6486486486486 18.6291666666667  18.9459459459459 19.01875  C 18.2072072072072 19.4260416666667  17.5900900900901 20.0015625  17.0945945945946 20.7453125  C 16.5990990990991 21.4890625  16.3513513513514 22.0822916666667  16.3513513513514 22.525  C 16.3513513513514 22.8260416666667  16.2432432432432 23.1138020833333  16.027027027027 23.38828125  C 15.8108108108108 23.6627604166667  15.5585585585586 23.8  15.2702702702703 23.8  L 8.78378378378378 23.8  C 8.51351351351352 23.8  8.28378378378379 23.6361979166667  8.09459459459459 23.30859375  C 7.90540540540541 22.9809895833333  7.81081081081081 22.6489583333333  7.81081081081081 22.3125  L 7.81081081081081 21.1171875  C 7.81081081081081 19.6473958333333  8.3963963963964 18.26171875  9.56756756756757 16.96015625  C 10.7387387387387 15.65859375  12.027027027027 14.6979166666667  13.4324324324324 14.078125  C 14.4954954954955 13.6  15.2522522522523 13.1041666666667  15.7027027027027 12.590625  C 16.1531531531532 12.0770833333333  16.3783783783784 11.4041666666667  16.3783783783784 10.571875  C 16.3783783783784 9.828125  15.9594594594595 9.17291666666667  15.1216216216216 8.60625  C 14.2837837837838 8.03958333333333  13.3153153153153 7.75625  12.2162162162162 7.75625  C 11.045045045045 7.75625  10.0720720720721 8.01302083333333  9.2972972972973 8.5265625  C 8.66666666666667 8.96927083333333  7.7027027027027 9.9875  6.40540540540541 11.58125  C 6.17117117117117 11.8645833333333  5.89189189189189 12.00625  5.56756756756757 12.00625  C 5.35135135135135 12.00625  5.12612612612613 11.9354166666667  4.89189189189189 11.79375  L 0.459459459459459 8.4734375  C 0.225225225225225 8.29635416666666  0.0855855855855861 8.075  0.0405405405405405 7.809375  C -0.00450450450450425 7.54375  0.0450450450450452 7.29583333333333  0.189189189189189 7.065625  C 3.07207207207207 2.35520833333333  7.25225225225225 0  12.7297297297297 0  C 14.1711711711712 0  15.6216216216216 0.274479166666666  17.0810810810811 0.823437499999998  C 18.5405405405405 1.37239583333333  19.8558558558559 2.10729166666666  21.027027027027 3.028125  C 22.1981981981982 3.94895833333333  23.1531531531532 5.07786458333333  23.8918918918919 6.41484375  Z " fill-rule="nonzero" fill="#000000" stroke="none" transform="matrix(1 0 0 1 24 133 )" />
  </g>
</svg>