<?xml version="1.0" encoding="utf-8"?>
<svg version="1.1" xmlns:xlink="http://www.w3.org/1999/xlink" width="29px" height="33px" xmlns="http://www.w3.org/2000/svg">
  <g transform="matrix(1 0 0 1 -20 -193 )">
    <path d="M 12.2626953125 19.2898995535714  C 12.3445095486111 19.5906808035714  12.3728298611111 19.7779017857143  12.34765625 19.8515625  C 12.3350694444444 19.8883928571429  12.2564019097222 19.8853236607143  12.1116536458333 19.8423549107143  C 11.9669053819444 19.7993861607143  11.7686631944444 19.7287946428571  11.5169270833333 19.6305803571429  L 11.1393229166667 19.46484375  C 10.5855034722222 19.2193080357143  10.0379774305556 18.9185267857143  9.49674479166667 18.5625  C 9.40863715277778 18.5011160714286  9.15060763888889 18.3077566964286  8.72265625 17.982421875  C 8.29470486111111 17.6570870535714  8.05555555555556 17.4821428571429  8.00520833333333 17.4575892857143  C 7.16189236111111 18.7220982142857  6.31857638888889 19.8331473214286  5.47526041666667 20.7907366071429  C 4.45572916666667 21.95703125  3.794921875 22.6322544642857  3.49283854166667 22.81640625  C 3.44249131944444 22.8409598214286  3.31976996527778 22.8655133928571  3.12467447916667 22.8900669642857  C 2.92957899305556 22.9146205357143  2.81315104166667 22.9146205357143  2.775390625 22.8900669642857  C 2.85091145833333 22.8409598214286  3.36697048611111 22.2762276785714  4.32356770833333 21.1958705357143  C 4.587890625 20.9012276785714  5.1259765625 20.1953125  5.93782552083333 19.078125  C 6.74967447916667 17.9609375  7.24370659722222 17.2366071428571  7.419921875 16.9051339285714  C 7.63389756944445 16.5368303571429  7.95486111111111 15.9321986607143  8.3828125 15.0912388392857  C 8.81076388888889 14.2502790178571  9.03732638888889 13.7745535714286  9.0625 13.6640625  C 8.96180555555556 13.6517857142857  8.26953125 13.8543526785714  6.98567708333333 14.2717633928571  C 6.88498263888889 14.2963169642857  6.7119140625 14.3423549107143  6.46647135416667 14.4098772321429  C 6.22102864583333 14.4773995535714  6.00390625 14.5357142857143  5.81510416666667 14.5848214285714  C 5.62630208333333 14.6339285714286  5.51931423611111 14.6646205357143  5.494140625 14.6768973214286  C 5.46896701388889 14.7014508928571  5.45638020833333 14.7659040178571  5.45638020833333 14.8702566964286  C 5.45638020833333 14.974609375  5.45008680555556 15.0329241071429  5.4375 15.0452008928571  C 5.37456597222222 15.16796875  5.17947048611111 15.2600446428571  4.85221354166667 15.3214285714286  C 4.56271701388889 15.4073660714286  4.26692708333333 15.4073660714286  3.96484375 15.3214285714286  C 3.73828125 15.2723214285714  3.56206597222222 15.1434151785714  3.43619791666667 14.9347098214286  C 3.38585069444444 14.8610491071429  3.35438368055556 14.7198660714286  3.341796875 14.5111607142857  C 3.41731770833333 14.4866071428571  3.57150607638889 14.4559151785714  3.80436197916667 14.4190848214286  C 4.03721788194444 14.3822544642857  4.22287326388889 14.3454241071429  4.361328125 14.30859375  C 5.09136284722222 14.1121651785714  5.75217013888889 13.9157366071429  6.34375 13.7193080357143  C 7.60243055555556 13.2896205357143  8.24435763888889 13.0747767857143  8.26953125 13.0747767857143  C 8.39539930555556 13.0502232142857  8.666015625 12.9305245535714  9.08138020833333 12.7156808035714  C 9.49674479166667 12.5008370535714  9.77365451388889 12.3688616071429  9.912109375 12.3197544642857  C 10.025390625 12.2829241071429  10.1606987847222 12.2338169642857  10.3180338541667 12.1724330357143  C 10.4753689236111 12.1110491071429  10.5666232638889 12.0772879464286  10.591796875 12.0711495535714  C 10.6169704861111 12.0650111607143  10.6547309027778 12.0680803571429  10.705078125 12.0803571428571  C 10.7302517361111 12.2276785714286  10.7239583333333 12.4302455357143  10.6861979166667 12.6880580357143  C 10.6861979166667 12.7126116071429  10.6075303819444 12.8783482142857  10.4501953125 13.1852678571429  C 10.2928602430556 13.4921875  10.1260850694444 13.8205915178571  9.94986979166667 14.1704799107143  C 9.77365451388889 14.5203683035714  9.66666666666667 14.7260044642857  9.62890625 14.7873883928571  C 9.31423611111111 15.4012276785714  8.82964409722222 16.2053571428571  8.17513020833333 17.1997767857143  L 9.38346354166667 17.7154017857143  C 9.53450520833333 17.7890625  10.0033637152778 17.9854910714286  10.7900390625 18.3046875  C 11.5767144097222 18.6238839285714  12.0015190972222 18.7957589285714  12.064453125 18.8203125  C 12.1148003472222 18.8325892857143  12.1808810763889 18.9891183035714  12.2626953125 19.2898995535714  Z M 8.08072916666667 10.5887276785714  C 8.29470486111111 10.5887276785714  8.42686631944445 10.6930803571429  8.47721354166667 10.9017857142857  C 8.51497395833333 11.0859375  8.48980034722222 11.2578125  8.40169270833333 11.4174107142857  C 8.25065104166667 11.6997767857143  7.93598090277778 11.9330357142857  7.45768229166667 12.1171875  C 7.080078125 12.2645089285714  6.70247395833333 12.3381696428571  6.32486979166667 12.3381696428571  C 5.99761284722222 12.3013392857143  5.68923611111111 12.1417410714286  5.39973958333333 11.859375  C 5.22352430555556 11.6752232142857  5.11024305555556 11.4235491071429  5.05989583333333 11.1043526785714  L 5.07877604166667 11.0491071428571  C 5.11653645833333 11.0859375  5.2392578125 11.1166294642857  5.44694010416667 11.1411830357143  C 5.65462239583333 11.1657366071429  5.82139756944444 11.1657366071429  5.947265625 11.1411830357143  C 6.07313368055556 11.1166294642857  6.43815104166667 11.0184151785714  7.04231770833333 10.8465401785714  C 7.49544270833333 10.69921875  7.84157986111111 10.61328125  8.08072916666667 10.5887276785714  Z M 20.220703125 16.6841517857143  L 21.6555989583333 13.27734375  L 22.8450520833333 17.4575892857143  L 20.220703125 16.6841517857143  Z M 1 9.0234375  L 1 28.0094866071429  L 14 23.7371651785714  L 14 4.73270089285714  L 1 9.0234375  Z M 23.4680989583333 19.6858258928571  L 24.1666666666667 22.171875  L 26.0924479166667 22.7427455357143  L 22.6751302083333 10.6439732142857  L 20.787109375 10.0731026785714  L 16.708984375 19.9436383928571  L 18.634765625 20.5145089285714  L 19.484375 18.4888392857143  L 23.4680989583333 19.6858258928571  Z M 25.48828125 0.847098214285716  L 14.669921875 4.45647321428572  L 25.48828125 7.84486607142857  L 25.48828125 0.847098214285716  Z M 21.353515625 30.1640625  L 20.5416666666667 28.8197544642857  L 23.5247395833333 29.0591517857143  L 22.5052083333333 32.0055803571429  L 21.75 30.7901785714286  C 20.1137152777778 31.8091517857143  18.3767361111111 32.4720982142857  16.5390625 32.7790178571429  C 15.8090277777778 32.9263392857143  15.236328125 33  14.8209635416667 33  L 13.2350260416667 33  C 12.2406684027778 33  10.9851345486111 32.7606026785714  9.46842447916667 32.2818080357143  C 7.95171440972222 31.8030133928571  6.796875 31.28125  6.00390625 30.7165178571429  C 5.90321180555556 30.6305803571429  5.85286458333333 30.5323660714286  5.85286458333333 30.421875  C 5.85286458333333 30.3236607142857  5.88433159722222 30.2407924107143  5.947265625 30.1732700892857  C 6.01019965277778 30.1057477678571  6.09201388888889 30.0719866071429  6.19270833333333 30.0719866071429  C 6.24305555555556 30.0719866071429  6.35633680555556 30.1180245535714  6.53255208333333 30.2101004464286  C 6.70876736111111 30.3021763392857  6.90071614583333 30.4034598214286  7.1083984375 30.5139508928571  C 7.31608072916667 30.6244419642857  7.44509548611111 30.6919642857143  7.49544270833333 30.7165178571429  C 8.41427951388889 31.1707589285714  9.41807725694445 31.5482700892857  10.5068359375 31.8490513392857  C 11.5955946180556 32.1498325892857  12.5868055555556 32.3002232142857  13.48046875 32.3002232142857  C 14.6762152777778 32.3002232142857  15.7272135416667 32.2112165178571  16.6334635416667 32.033203125  C 17.5397135416667 31.8551897321429  18.5277777777778 31.5452008928571  19.59765625 31.1032366071429  C 19.7864583333333 31.0172991071429  19.9784071180556 30.9221540178571  20.1735026041667 30.8178013392857  C 20.3685980902778 30.7134486607143  20.5825737847222 30.5968191964286  20.8154296875 30.4679129464286  C 21.0482855902778 30.3390066964286  21.2276475694444 30.2377232142857  21.353515625 30.1640625  Z M 26.224609375 8.08426339285714  L 29 8.94977678571428  L 29 28.8197544642857  L 14.38671875 24.2896205357143  C 14.2105034722222 24.36328125  11.8504774305556 25.1459263392857  7.306640625 26.6375558035714  C 2.76280381944444 28.1291852678571  0.446831597222222 28.875  0.358723958333333 28.875  C 0.195095486111111 28.875  0.0818142361111111 28.7952008928571  0.0188802083333333 28.6356026785714  C 0.0188802083333333 28.6233258928571  0.0125868055555556 28.6049107142857  0 28.5803571428571  L 0 8.72879464285714  C 0.0377604166666667 8.61830357142857  0.0629340277777778 8.55691964285714  0.0755208333333333 8.54464285714286  C 0.138454861111111 8.47098214285714  0.264322916666667 8.40345982142857  0.453125 8.34207589285714  C 1.79991319444444 7.90011160714286  2.73763020833333 7.59319196428571  3.26627604166667 7.42131696428572  L 3.26627604166667 0.349888392857144  L 13.8014322916667 3.99609375  C 13.8266059027778 3.99609375  14.8366970486111 3.65848214285714  16.8317057291667 2.98325892857143  C 18.8267144097222 2.30803571428571  20.8154296875 1.64202008928571  22.7978515625 0.985212053571428  C 24.7802734375 0.328404017857145  25.7966579861111 0  25.8470052083333 0  C 26.0987413194444 0  26.224609375 0.12890625  26.224609375 0.38671875  L 26.224609375 8.08426339285714  Z " fill-rule="nonzero" fill="#000000" stroke="none" transform="matrix(1 0 0 1 20 193 )" />
  </g>
</svg>