<?xml version="1.0" encoding="utf-8"?>
<svg version="1.1" xmlns:xlink="http://www.w3.org/1999/xlink" width="19px" height="19px" xmlns="http://www.w3.org/2000/svg">
  <g transform="matrix(1 0 0 1 -245 -16 )">
    <path d="M 12.200408997955 12.1848670756646  C 13.2014106005191 11.1838654731005  13.73046875 9.44671474358974  13.73046875 8.03846153846153  C 13.73046875 6.63020833333333  13.2014106005191 4.94864986432279  12.200408997955 3.94764826175869  C 11.1994073953909 2.94664665919459  9.44671474358974 2.34645432692308  8.03846153846154 2.34645432692308  C 6.63020833333333 2.34645432692308  4.8087725637093 2.94664665919459  3.8077709611452 3.94764826175869  C 2.8067693585811 4.94864986432279  2.34645432692308 6.63020833333333  2.34645432692308 8.03846153846153  C 2.34645432692308 9.44671474358974  2.8067693585811 11.1838654731005  3.8077709611452 12.1848670756646  C 4.8087725637093 13.1858686782287  6.63020833333333 13.73046875  8.03846153846154 13.73046875  C 9.44671474358974 13.73046875  11.1994073953909 13.1858686782287  12.200408997955 12.1848670756646  Z M 18.5775240384615 16.5108173076923  C 18.8591746794872 16.792467948718  19 17.135016025641  19 17.5384615384615  C 19 17.9342948717949  18.8553685897436 18.276842948718  18.5661057692308 18.5661057692308  C 18.2768429487179 18.8553685897436  17.9342948717949 19  17.5384615384615 19  C 17.1274038461538 19  16.7848557692308 18.8553685897436  16.5108173076923 18.5661057692308  L 12.5943509615385 14.6610576923077  C 11.2317708333333 15.604967948718  9.71314102564103 16.0769230769231  8.03846153846154 16.0769230769231  C 6.94991987179487 16.0769230769231  5.90895432692308 15.8656850961538  4.91556490384615 15.4432091346154  C 3.92217548076923 15.0207331730769  3.06580528846154 14.4498197115385  2.34645432692308 13.73046875  C 1.62710336538462 13.0111177884615  1.05618990384615 12.1547475961538  0.633713942307691 11.1613581730769  C 0.21123798076923 10.16796875  0 9.1270032051282  0 8.03846153846153  C 0 6.94991987179486  0.21123798076923 5.90895432692308  0.633713942307691 4.91556490384616  C 1.05618990384615 3.92217548076923  1.62710336538462 3.06580528846153  2.34645432692308 2.34645432692308  C 3.06580528846154 1.62710336538461  3.92217548076923 1.05618990384616  4.91556490384615 0.633713942307687  C 5.90895432692308 0.211237980769235  6.94991987179487 0  8.03846153846154 0  C 9.12700320512821 0  10.16796875 0.211237980769235  11.1613581730769 0.633713942307687  C 12.1547475961538 1.05618990384616  13.0111177884615 1.62710336538461  13.73046875 2.34645432692308  C 14.4498197115385 3.06580528846153  15.0207331730769 3.92217548076923  15.4432091346154 4.91556490384616  C 15.8656850961538 5.90895432692308  16.0769230769231 6.94991987179486  16.0769230769231 8.03846153846153  C 16.0769230769231 9.71314102564102  15.604967948718 11.2317708333333  14.6610576923077 12.5943509615385  L 18.5775240384615 16.5108173076923  Z " fill-rule="nonzero" fill="#000000" stroke="none" transform="matrix(1 0 0 1 245 16 )" />
  </g>
</svg>