<?xml version="1.0" encoding="utf-8"?>
<svg version="1.1" xmlns:xlink="http://www.w3.org/1999/xlink" width="8px" height="7px" xmlns="http://www.w3.org/2000/svg">
  <g transform="matrix(1 0 0 1 -249 -21 )">
    <path d="M 7.85548387096774 0.966329966329967  C 7.95182795698925 1.07631874298541  8 1.20987654320988  8 1.36700336700337  C 8 1.52413019079686  7.95182795698925 1.65768799102132  7.85548387096774 1.76767676767677  L 4.11870967741936 6.03367003367003  L 3.41677419354839 6.83501683501683  C 3.32043010752688 6.94500561167228  3.20344086021505 7  3.0658064516129 7  C 2.92817204301075 7  2.81118279569893 6.94500561167228  2.71483870967742 6.83501683501683  L 2.01290322580645 6.03367003367003  L 0.144516129032258 3.9006734006734  C 0.0481720430107527 3.79068462401796  0 3.65712682379349  0 3.5  C 0 3.34287317620651  0.0481720430107527 3.20931537598204  0.144516129032258 3.0993265993266  L 0.846451612903226 2.2979797979798  C 0.942795698924731 2.18799102132435  1.05978494623656 2.13299663299663  1.19741935483871 2.13299663299663  C 1.33505376344086 2.13299663299663  1.45204301075269 2.18799102132435  1.54838709677419 2.2979797979798  L 3.0658064516129 4.03619528619529  L 6.45161290322581 0.164983164983165  C 6.54795698924731 0.0549943883277214  6.66494623655914 0  6.80258064516129 0  C 6.94021505376344 0  7.05720430107527 0.0549943883277214  7.15354838709677 0.164983164983165  L 7.85548387096774 0.966329966329967  Z " fill-rule="nonzero" fill="#000000" stroke="none" transform="matrix(1 0 0 1 249 21 )" />
  </g>
</svg>