<?xml version="1.0" encoding="utf-8"?>
<svg version="1.1" xmlns:xlink="http://www.w3.org/1999/xlink" width="20px" height="23px" xmlns="http://www.w3.org/2000/svg">
  <g transform="matrix(1 0 0 1 -47 -14 )">
    <path d="M 15.0520833333333 0.872767857142858  L 19.1145833333333 4.87723214285714  C 19.3576388888889 5.11681547619047  19.5659722222222 5.44196428571429  19.7395833333333 5.85267857142857  C 19.9131944444444 6.26339285714286  20 6.63988095238095  20 6.98214285714286  L 20 21.7678571428571  C 20 22.110119047619  19.8784722222222 22.4010416666667  19.6354166666667 22.640625  C 19.3923611111111 22.8802083333333  19.0972222222222 23  18.75 23  L 1.25 23  C 0.902777777777778 23  0.607638888888889 22.8802083333333  0.364583333333333 22.640625  C 0.121527777777778 22.4010416666667  0 22.110119047619  0 21.7678571428571  L 0 1.23214285714286  C 0 0.889880952380952  0.121527777777778 0.598958333333332  0.364583333333333 0.359375  C 0.607638888888889 0.119791666666668  0.902777777777778 0  1.25 0  L 12.9166666666667 0  C 13.2638888888889 0  13.6458333333333 0.0855654761904772  14.0625 0.256696428571429  C 14.4791666666667 0.427827380952381  14.8090277777778 0.633184523809523  15.0520833333333 0.872767857142858  Z M 13.8671875 2.02790178571429  C 13.7630208333333 1.92522321428571  13.5850694444444 1.83110119047619  13.3333333333333 1.74553571428571  L 13.3333333333333 6.57142857142857  L 18.2291666666667 6.57142857142857  C 18.1423611111111 6.32328869047619  18.046875 6.14787946428571  17.9427083333333 6.04520089285714  L 13.8671875 2.02790178571429  Z M 2 21  L 18 21  L 18 8.21428571428571  L 12.9166666666667 8.21428571428571  C 12.5694444444444 8.21428571428571  12.2743055555556 8.09449404761905  12.03125 7.85491071428571  C 11.7881944444444 7.61532738095238  11.6666666666667 7.32440476190476  11.6666666666667 6.98214285714286  L 11.6666666666667 2  L 2 2  L 2 21  Z " fill-rule="nonzero" fill="#000000" stroke="none" transform="matrix(1 0 0 1 47 14 )" />
  </g>
</svg>