<?xml version="1.0" encoding="utf-8"?>
<svg version="1.1" xmlns:xlink="http://www.w3.org/1999/xlink" width="26px" height="15px" xmlns="http://www.w3.org/2000/svg">
  <g transform="matrix(1 0 0 1 -209 -55 )">
    <path d="M 25.7394789579158 1.54639175257732  C 25.9131596526386 1.71821305841924  26 1.91580756013746  26 2.13917525773196  C 26 2.36254295532646  25.9131596526386 2.56013745704467  25.7394789579158 2.7319587628866  L 13.5991983967936 14.7422680412371  C 13.4255177020708 14.914089347079  13.2257849031396 15  13 15  C 12.7742150968604 15  12.5744822979292 14.914089347079  12.4008016032064 14.7422680412371  L 0.260521042084168 2.7319587628866  C 0.0868403473613897 2.56013745704467  0 2.36254295532646  0 2.13917525773196  C 0 1.91580756013746  0.0868403473613897 1.71821305841924  0.260521042084168 1.54639175257732  L 1.56312625250501 0.257731958762887  C 1.73680694722779 0.0859106529209602  1.93653974615898 0  2.1623246492986 0  C 2.38810955243821 0  2.58784235136941 0.0859106529209602  2.76152304609218 0.257731958762887  L 13 10.3865979381443  L 23.2384769539078 0.257731958762887  C 23.4121576486306 0.0859106529209602  23.6118904475618 0  23.8376753507014 0  C 24.063460253841 0  24.2631930527722 0.0859106529209602  24.436873747495 0.257731958762887  L 25.7394789579158 1.54639175257732  Z " fill-rule="nonzero" fill="#000000" stroke="none" transform="matrix(1 0 0 1 209 55 )" />
  </g>
</svg>